<svg xmlns="http://www.w3.org/2000/svg" xmlns:xlink="http://www.w3.org/1999/xlink" contentStyleType="text/css" data-diagram-type="DESCRIPTION" height="536px" preserveAspectRatio="none" style="width:765px;height:536px;background:#FFFFFF;" version="1.1" viewBox="0 0 765 536" width="765px" zoomAndPan="magnify"><defs/><g><!--cluster Web application for emotion recognition--><g class="cluster" data-entity="Web application for emotion recognition" data-source-line="3" data-uid="ent0003" id="cluster_Web application for emotion recognition"><rect fill="none" height="287" rx="2.5" ry="2.5" style="stroke:#181818;stroke-width:1;" width="674.95" x="84.91" y="7"/><text fill="#000000" font-family="sans-serif" font-size="14" font-weight="bold" lengthAdjust="spacing" textLength="319.9355" x="262.4172" y="21.9951">Web application for emotion recognition</text></g><g class="entity" data-entity="mode" data-source-line="4" data-uid="ent0004" id="entity_mode"><ellipse cx="239.001" cy="71.9982" fill="#F1F1F1" rx="138.091" ry="30.0182" style="stroke:#181818;stroke-width:0.5;"/><text fill="#000000" font-family="sans-serif" font-size="14" lengthAdjust="spacing" textLength="245.6016" x="116.2002" y="74.8449">Select analysis mode (video/audio)</text></g><g class="entity" data-entity="video" data-source-line="5" data-uid="ent0005" id="entity_video"><ellipse cx="622.975" cy="74.999" fill="#F1F1F1" rx="92.895" ry="20.979" style="stroke:#181818;stroke-width:0.5;"/><text fill="#000000" font-family="sans-serif" font-size="14" lengthAdjust="spacing" textLength="148.2646" x="548.8427" y="77.8457">Start video recording</text></g><g class="entity" data-entity="audio" data-source-line="6" data-uid="ent0006" id="entity_audio"><ellipse cx="622.9819" cy="153.9984" fill="#F1F1F1" rx="93.1419" ry="21.0284" style="stroke:#181818;stroke-width:0.5;"/><text fill="#000000" font-family="sans-serif" font-size="14" lengthAdjust="spacing" textLength="148.8184" x="548.5727" y="156.8451">Start audio recording</text></g><g class="entity" data-entity="viewResults" data-source-line="7" data-uid="ent0007" id="entity_viewResults"><ellipse cx="239.0037" cy="163.9987" fill="#F1F1F1" rx="120.4937" ry="26.4987" style="stroke:#181818;stroke-width:0.5;"/><text fill="#000000" font-family="sans-serif" font-size="14" lengthAdjust="spacing" textLength="208.4072" x="134.8001" y="166.8454">View emotion analysis results</text></g><g class="entity" data-entity="saveResults" data-source-line="8" data-uid="ent0008" id="entity_saveResults"><ellipse cx="622.9849" cy="241.997" fill="#F1F1F1" rx="120.8849" ry="26.577" style="stroke:#181818;stroke-width:0.5;"/><text fill="#000000" font-family="sans-serif" font-size="14" lengthAdjust="spacing" textLength="209.2412" x="518.3643" y="244.8437">Save emotion analysis results</text></g><g class="entity" data-entity="webService" data-source-line="9" data-uid="ent0009" id="entity_webService"><ellipse cx="238.9953" cy="251.9991" fill="#F1F1F1" rx="118.3453" ry="26.0691" style="stroke:#181818;stroke-width:0.5;"/><text fill="#000000" font-family="sans-serif" font-size="14" lengthAdjust="spacing" textLength="203.8203" x="137.0851" y="254.8457">View web service description</text></g><!--entity u--><g class="entity" data-entity="u" data-source-line="2" data-uid="ent0002" id="entity_u"><ellipse cx="21.9551" cy="281.36" fill="#F1F1F1" rx="8" ry="8" style="stroke:#181818;stroke-width:0.5;"/><path d="M21.9551,289.36 L21.9551,316.36 M8.9551,297.36 L34.9551,297.36 M21.9551,316.36 L8.9551,331.36 M21.9551,316.36 L34.9551,331.36" fill="none" style="stroke:#181818;stroke-width:0.5;"/><text fill="#000000" font-family="sans-serif" font-size="14" lengthAdjust="spacing" textLength="31.9102" x="6" y="345.8551">User</text></g><!--link u to mode--><g class="link" data-entity-1="u" data-entity-2="mode" data-source-line="11" data-uid="lnk10" id="link_u_mode"><path d="M23.34,272.66 C25.86,229.78 36.51,160.98 76.91,120 C90.43,106.29 102.0953,98.6177 120.2653,91.5777" fill="none" id="u-to-mode" style="stroke:#181818;stroke-width:1;"/><polygon fill="#181818" points="125.86,89.41,116.0228,88.9317,121.1977,91.2164,118.913,96.3914,125.86,89.41" style="stroke:#181818;stroke-width:1;"/></g><!--link u to video--><g class="link" data-entity-1="u" data-entity-2="video" data-source-line="12" data-uid="lnk11" id="link_u_video"><path d="M38.09,313.54 C88.3,321.29 253.19,341.52 377.09,296 C427.33,277.55 442.26,266.44 472.09,222 C499.62,181 468.03,150.77 502.09,115 C514.27,102.21 524.9937,95.5115 541.7237,89.5915" fill="none" id="u-to-video" style="stroke:#181818;stroke-width:1;"/><polygon fill="#181818" points="547.38,87.59,537.5612,86.8214,542.6664,89.2579,540.2299,94.3632,547.38,87.59" style="stroke:#181818;stroke-width:1;"/></g><!--link u to audio--><g class="link" data-entity-1="u" data-entity-2="audio" data-source-line="13" data-uid="lnk12" id="link_u_audio"><path d="M38.28,333.2 C45.98,342.4 56.18,352.07 67.91,357 C233.47,426.7 333.79,471.65 472.09,357 C527.46,311.11 455.61,252.88 502.09,198 C514.34,183.54 526.1461,175.8937 543.9461,169.3737" fill="none" id="u-to-audio" style="stroke:#181818;stroke-width:1;"/><polygon fill="#181818" points="549.58,167.31,539.7533,166.6495,544.8851,169.0297,542.5049,174.1615,549.58,167.31" style="stroke:#181818;stroke-width:1;"/></g><!--reverse link mode to video--><g class="link" data-entity-1="mode" data-entity-2="video" data-source-line="15" data-uid="lnk13" id="link_mode_video"><path d="M383.3598,73.1274 C433.9498,73.5274 483.99,73.92 529.66,74.28" fill="none" id="mode-backto-video" style="stroke:#181818;stroke-width:1;stroke-dasharray:7.0,7.0;"/><polygon fill="#181818" points="377.36,73.08,386.3281,77.151,382.3598,73.1195,386.3913,69.1513,377.36,73.08" style="stroke:#181818;stroke-width:1;"/><text fill="#000000" font-family="sans-serif" font-size="13" lengthAdjust="spacing" textLength="63.0068" x="408.09" y="70.0669">&#171;include&#187;</text></g><!--reverse link mode to audio--><g class="link" data-entity-1="mode" data-entity-2="audio" data-source-line="16" data-uid="lnk14" id="link_mode_audio"><path d="M344.2362,94.3798 C411.9862,108.9298 494.39,126.61 554.33,139.48" fill="none" id="mode-backto-audio" style="stroke:#181818;stroke-width:1;stroke-dasharray:7.0,7.0;"/><polygon fill="#181818" points="338.37,93.12,346.3295,98.9206,343.2585,94.1699,348.0093,91.0989,338.37,93.12" style="stroke:#181818;stroke-width:1;"/><text fill="#000000" font-family="sans-serif" font-size="13" lengthAdjust="spacing" textLength="63.0068" x="408.09" y="105.0669">&#171;include&#187;</text></g><!--link u to viewResults--><g class="link" data-entity-1="u" data-entity-2="viewResults" data-source-line="18" data-uid="lnk15" id="link_u_viewResults"><path d="M34.54,272.41 C42.97,250.56 56.54,224.39 76.91,208 C94.08,194.19 109.5122,186.4545 130.8022,179.9445" fill="none" id="u-to-viewResults" style="stroke:#181818;stroke-width:1;"/><polygon fill="#181818" points="136.54,178.19,126.7637,176.9965,131.7585,179.6521,129.103,184.6469,136.54,178.19" style="stroke:#181818;stroke-width:1;"/></g><!--link u to saveResults--><g class="link" data-entity-1="u" data-entity-2="saveResults" data-source-line="19" data-uid="lnk16" id="link_u_saveResults"><path d="M26.61,349.54 C31.4,376.42 42.44,410.51 67.91,428 C215.97,529.73 310.05,505.53 472.09,428 C541.67,394.71 586.6533,317.0093 607.4733,274.0493" fill="none" id="u-to-saveResults" style="stroke:#181818;stroke-width:1;"/><polygon fill="#181818" points="610.09,268.65,602.5654,275.0045,607.9094,273.1494,609.7645,278.4935,610.09,268.65" style="stroke:#181818;stroke-width:1;"/></g><!--reverse link viewResults to saveResults--><g class="link" data-entity-1="viewResults" data-entity-2="saveResults" data-source-line="21" data-uid="lnk17" id="link_viewResults_saveResults"><path d="M331.2352,183.9948 C357.4352,189.6448 380.5,194.54 407.09,200 C447.49,208.3 492.25,217.11 530.41,224.51" fill="none" id="viewResults-backto-saveResults" style="stroke:#181818;stroke-width:1;stroke-dasharray:7.0,7.0;"/><polygon fill="#181818" points="325.37,182.73,333.3245,188.5373,330.2576,183.784,335.011,180.7171,325.37,182.73" style="stroke:#181818;stroke-width:1;"/><text fill="#000000" font-family="sans-serif" font-size="13" lengthAdjust="spacing" textLength="61.1851" x="409.09" y="196.0669">&#171;extend&#187;</text></g><!--link u to webService--><g class="link" data-entity-1="u" data-entity-2="webService" data-source-line="23" data-uid="lnk18" id="link_u_webService"><path d="M38.08,306.86 C63.89,299.77 112.2938,286.4975 157.7438,274.0275" fill="none" id="u-to-webService" style="stroke:#181818;stroke-width:1;"/><polygon fill="#181818" points="163.53,272.44,153.7924,270.9639,158.7082,273.7629,155.9091,278.6787,163.53,272.44" style="stroke:#181818;stroke-width:1;"/></g><!--SRC=[VP1DJiGm38NtFONL5IncsAEgXs04h4tYAPOoIPMV5eIuEuap6gNLYApYbyz-yJDqZX0TU9u-8sZsf28xsw6ApiDh80yO87L5HpiPWlwTFW3dsR32Wi8vWtHnSi-OcooNUmy_7UIJ0YaCkUz49Wy1j6Y-0mUuE4tmiB0czuH9itliYrUHTuqHVGG1nS1hjfEmejs3PTuE5cqBlp6jjx_VFkOf91F3rO7MbrhlV72X_rj39kwsYkkQKypfBgm8D0NbUQwfvSxyTgfFNUs4ms5iWf6osLtgkfu8aknmF5upUuPXOAjCqZIEMw3cj0Ks7hljHMqN4xd1P6e3o6pwYcJrTdIpu-yV]--></g></svg>