<svg xmlns="http://www.w3.org/2000/svg" xmlns:xlink="http://www.w3.org/1999/xlink" contentStyleType="text/css" data-diagram-type="ACTIVITY" height="595px" preserveAspectRatio="none" style="width:697px;height:595px;background:#FFFFFF;" version="1.1" viewBox="0 0 697 595" width="697px" zoomAndPan="magnify"><defs/><g><rect fill="none" height="20.9531" style="stroke:none;stroke-width:1;" width="664.6323" x="15" y="12.7451"/><ellipse cx="94.6328" cy="48.6982" fill="#222222" rx="10" ry="10" style="stroke:#222222;stroke-width:1;"/><rect fill="#F1F1F1" height="33.9688" rx="12.5" ry="12.5" style="stroke:#181818;stroke-width:0.5;" width="147.2656" x="21" y="78.6982"/><text fill="#000000" font-family="sans-serif" font-size="12" lengthAdjust="spacing" textLength="127.2656" x="31" y="99.8369">Select analysis mode</text><rect fill="#F1F1F1" height="33.9688" rx="12.5" ry="12.5" style="stroke:#181818;stroke-width:0.5;" width="145.4199" x="21.9229" y="507.4795"/><text fill="#000000" font-family="sans-serif" font-size="12" lengthAdjust="spacing" textLength="125.4199" x="31.9229" y="528.6182">View analysis results</text><ellipse cx="94.6328" cy="572.4482" fill="none" rx="11" ry="11" style="stroke:#222222;stroke-width:1;"/><ellipse cx="94.6328" cy="572.4482" fill="#222222" rx="6" ry="6" style="stroke:#222222;stroke-width:1;"/><line style="stroke:#000000;stroke-width:1.5;" x1="15" x2="15" y1="12.7451" y2="583.4482"/><polygon fill="#F1F1F1" points="422.8403,132.667,509.2505,132.667,521.2505,144.667,509.2505,156.667,422.8403,156.667,410.8403,144.667,422.8403,132.667" style="stroke:#181818;stroke-width:0.5;"/><text fill="#000000" font-family="sans-serif" font-size="11" lengthAdjust="spacing" textLength="86.4102" x="422.8403" y="148.4751">Video or Audio?</text><text fill="#000000" font-family="sans-serif" font-size="11" lengthAdjust="spacing" textLength="39.644" x="371.1963" y="142.0728">[Video]</text><text fill="#000000" font-family="sans-serif" font-size="11" lengthAdjust="spacing" textLength="39.8481" x="521.2505" y="142.0728">[Audio]</text><rect fill="#F1F1F1" height="33.9688" rx="12.5" ry="12.5" style="stroke:#181818;stroke-width:0.5;" width="118.5137" x="277.4121" y="166.667"/><text fill="#000000" font-family="sans-serif" font-size="12" lengthAdjust="spacing" textLength="98.5137" x="287.4121" y="187.8057">Activate camera</text><rect fill="#555555" height="6" rx="2.5" ry="2.5" style="stroke:#555555;stroke-width:1;" width="318.8066" x="178.2656" y="220.6357"/><rect fill="#F1F1F1" height="47.9375" rx="12.5" ry="12.5" style="stroke:#181818;stroke-width:0.5;" width="109.2207" x="190.2656" y="288.1045"/><text fill="#000000" font-family="sans-serif" font-size="12" lengthAdjust="spacing" textLength="80.8242" x="200.2656" y="309.2432">Display video</text><text fill="#000000" font-family="sans-serif" font-size="12" lengthAdjust="spacing" textLength="89.2207" x="200.2656" y="323.2119">on the monitor</text><rect fill="#F1F1F1" height="47.9375" rx="12.5" ry="12.5" style="stroke:#181818;stroke-width:0.5;" width="155.5859" x="327.4863" y="246.6357"/><text fill="#000000" font-family="sans-serif" font-size="12" lengthAdjust="spacing" textLength="101.2734" x="337.4863" y="267.7744">Detect key facial</text><text fill="#000000" font-family="sans-serif" font-size="12" lengthAdjust="spacing" textLength="135.5859" x="337.4863" y="281.7432">landmarks in real time</text><rect fill="#F1F1F1" height="47.9375" rx="12.5" ry="12.5" style="stroke:#181818;stroke-width:0.5;" width="144.0371" x="333.2607" y="329.5732"/><text fill="#000000" font-family="sans-serif" font-size="12" lengthAdjust="spacing" textLength="121.3652" x="343.2607" y="350.7119">Recognize emotions</text><text fill="#000000" font-family="sans-serif" font-size="12" lengthAdjust="spacing" textLength="124.0371" x="343.2607" y="364.6807">on video in real time</text><rect fill="#555555" height="6" rx="2.5" ry="2.5" style="stroke:#555555;stroke-width:1;" width="318.8066" x="178.2656" y="397.5107"/><rect fill="#F1F1F1" height="33.9688" rx="12.5" ry="12.5" style="stroke:#181818;stroke-width:0.5;" width="144.6523" x="523.0957" y="166.667"/><text fill="#000000" font-family="sans-serif" font-size="12" lengthAdjust="spacing" textLength="124.6523" x="533.0957" y="187.8057">Activate microphone</text><rect fill="#F1F1F1" height="33.9688" rx="12.5" ry="12.5" style="stroke:#181818;stroke-width:0.5;" width="130.1211" x="530.3613" y="220.6357"/><text fill="#000000" font-family="sans-serif" font-size="12" lengthAdjust="spacing" textLength="110.1211" x="540.3613" y="241.7744">Record audio data</text><rect fill="#F1F1F1" height="47.9375" rx="12.5" ry="12.5" style="stroke:#181818;stroke-width:0.5;" width="156.6992" x="517.0723" y="289.6045"/><text fill="#000000" font-family="sans-serif" font-size="12" lengthAdjust="spacing" textLength="121.3652" x="527.0723" y="310.7432">Recognize emotions</text><text fill="#000000" font-family="sans-serif" font-size="12" lengthAdjust="spacing" textLength="136.6992" x="527.0723" y="324.7119">on the audio recording</text><polygon fill="#F1F1F1" points="466.0454,409.5107,478.0454,421.5107,466.0454,433.5107,454.0454,421.5107,466.0454,409.5107" style="stroke:#181818;stroke-width:0.5;"/><rect fill="#F1F1F1" height="33.9688" rx="12.5" ry="12.5" style="stroke:#181818;stroke-width:0.5;" width="103.9824" x="414.0542" y="453.5107"/><text fill="#000000" font-family="sans-serif" font-size="12" lengthAdjust="spacing" textLength="83.9824" x="424.0542" y="474.6494">End recording</text><line style="stroke:#000000;stroke-width:1.5;" x1="172.2656" x2="172.2656" y1="12.7451" y2="583.4482"/><line style="stroke:#000000;stroke-width:1.5;" x1="677.7715" x2="677.7715" y1="12.7451" y2="583.4482"/><line style="stroke:#181818;stroke-width:1;" x1="94.6328" x2="94.6328" y1="58.6982" y2="78.6982"/><polygon fill="#181818" points="90.6328,68.6982,94.6328,78.6982,98.6328,68.6982,94.6328,72.6982" style="stroke:#181818;stroke-width:1;"/><line style="stroke:#181818;stroke-width:1;" x1="94.6328" x2="94.6328" y1="541.4482" y2="561.4482"/><polygon fill="#181818" points="90.6328,551.4482,94.6328,561.4482,98.6328,551.4482,94.6328,555.4482" style="stroke:#181818;stroke-width:1;"/><line style="stroke:#181818;stroke-width:1;" x1="405.2793" x2="405.2793" y1="294.5732" y2="329.5732"/><polygon fill="#181818" points="401.2793,319.5732,405.2793,329.5732,409.2793,319.5732,405.2793,323.5732" style="stroke:#181818;stroke-width:1;"/><line style="stroke:#181818;stroke-width:1;" x1="244.876" x2="244.876" y1="226.6357" y2="288.1045"/><polygon fill="#181818" points="240.876,278.1045,244.876,288.1045,248.876,278.1045,244.876,282.1045" style="stroke:#181818;stroke-width:1;"/><line style="stroke:#181818;stroke-width:1;" x1="405.2793" x2="405.2793" y1="226.6357" y2="246.6357"/><polygon fill="#181818" points="401.2793,236.6357,405.2793,246.6357,409.2793,236.6357,405.2793,240.6357" style="stroke:#181818;stroke-width:1;"/><line style="stroke:#181818;stroke-width:1;" x1="244.876" x2="244.876" y1="336.042" y2="397.5107"/><polygon fill="#181818" points="240.876,387.5107,244.876,397.5107,248.876,387.5107,244.876,391.5107" style="stroke:#181818;stroke-width:1;"/><line style="stroke:#181818;stroke-width:1;" x1="405.2793" x2="405.2793" y1="377.5107" y2="397.5107"/><polygon fill="#181818" points="401.2793,387.5107,405.2793,397.5107,409.2793,387.5107,405.2793,391.5107" style="stroke:#181818;stroke-width:1;"/><line style="stroke:#181818;stroke-width:1;" x1="336.6689" x2="336.6689" y1="200.6357" y2="220.6357"/><polygon fill="#181818" points="332.6689,210.6357,336.6689,220.6357,340.6689,210.6357,336.6689,214.6357" style="stroke:#181818;stroke-width:1;"/><line style="stroke:#181818;stroke-width:1;" x1="595.4219" x2="595.4219" y1="200.6357" y2="220.6357"/><polygon fill="#181818" points="591.4219,210.6357,595.4219,220.6357,599.4219,210.6357,595.4219,214.6357" style="stroke:#181818;stroke-width:1;"/><line style="stroke:#181818;stroke-width:1;" x1="595.4219" x2="595.4219" y1="254.6045" y2="289.6045"/><polygon fill="#181818" points="591.4219,279.6045,595.4219,289.6045,599.4219,279.6045,595.4219,283.6045" style="stroke:#181818;stroke-width:1;"/><line style="stroke:#181818;stroke-width:1;" x1="410.8403" x2="336.6689" y1="144.667" y2="144.667"/><line style="stroke:#181818;stroke-width:1;" x1="336.6689" x2="336.6689" y1="144.667" y2="166.667"/><polygon fill="#181818" points="332.6689,156.667,336.6689,166.667,340.6689,156.667,336.6689,160.667" style="stroke:#181818;stroke-width:1;"/><line style="stroke:#181818;stroke-width:1;" x1="521.2505" x2="595.4219" y1="144.667" y2="144.667"/><line style="stroke:#181818;stroke-width:1;" x1="595.4219" x2="595.4219" y1="144.667" y2="166.667"/><polygon fill="#181818" points="591.4219,156.667,595.4219,166.667,599.4219,156.667,595.4219,160.667" style="stroke:#181818;stroke-width:1;"/><line style="stroke:#181818;stroke-width:1;" x1="336.6689" x2="336.6689" y1="403.5107" y2="421.5107"/><line style="stroke:#181818;stroke-width:1;" x1="336.6689" x2="454.0454" y1="421.5107" y2="421.5107"/><polygon fill="#181818" points="444.0454,417.5107,454.0454,421.5107,444.0454,425.5107,448.0454,421.5107" style="stroke:#181818;stroke-width:1;"/><line style="stroke:#181818;stroke-width:1;" x1="595.4219" x2="595.4219" y1="337.542" y2="421.5107"/><line style="stroke:#181818;stroke-width:1;" x1="595.4219" x2="478.0454" y1="421.5107" y2="421.5107"/><polygon fill="#181818" points="488.0454,417.5107,478.0454,421.5107,488.0454,425.5107,484.0454,421.5107" style="stroke:#181818;stroke-width:1;"/><line style="stroke:#181818;stroke-width:1;" x1="466.0454" x2="466.0454" y1="433.5107" y2="453.5107"/><polygon fill="#181818" points="462.0454,443.5107,466.0454,453.5107,470.0454,443.5107,466.0454,447.5107" style="stroke:#181818;stroke-width:1;"/><line style="stroke:#181818;stroke-width:1;" x1="94.6328" x2="94.6328" y1="112.667" y2="117.667"/><line style="stroke:#181818;stroke-width:1;" x1="94.6328" x2="466.0454" y1="117.667" y2="117.667"/><line style="stroke:#181818;stroke-width:1;" x1="466.0454" x2="466.0454" y1="117.667" y2="132.667"/><polygon fill="#181818" points="462.0454,122.667,466.0454,132.667,470.0454,122.667,466.0454,126.667" style="stroke:#181818;stroke-width:1;"/><line style="stroke:#181818;stroke-width:1;" x1="466.0454" x2="466.0454" y1="487.4795" y2="492.4795"/><line style="stroke:#181818;stroke-width:1;" x1="466.0454" x2="94.6328" y1="492.4795" y2="492.4795"/><line style="stroke:#181818;stroke-width:1;" x1="94.6328" x2="94.6328" y1="492.4795" y2="507.4795"/><polygon fill="#181818" points="90.6328,497.4795,94.6328,507.4795,98.6328,497.4795,94.6328,501.4795" style="stroke:#181818;stroke-width:1;"/><text fill="#000000" font-family="sans-serif" font-size="18" lengthAdjust="spacing" textLength="41.0273" x="73.1191" y="29.4531">User</text><text fill="#000000" font-family="sans-serif" font-size="18" lengthAdjust="spacing" textLength="67.1221" x="391.4575" y="29.4531">System</text><!--SRC=[RP51QWCn34NtFeMMoHLc5YNGNg2XsJHT25ip4R6bO2ifK-RmzJY52JHUYSz__lfe_YYKPrSCipdNxIcIDq31E1Kka3HGxzoydufHcftZ0JO73gIW6NRNmFgo1JkHmEQpwLzR1_LrEszyGoFmc2XZtzH1yxaDpVBAvH9nWjl27KLb-QX62flc5G0SaUK18rjsFDC40th6U9I84XBcSm4Mo8GHZ1FrA_DENaVX7m9AQgnIMbvBViAGXFkk50lLPgtelsQ9VTRBIUMFQYav02vk26Zue3z9NzhUlRc1B6FlQZGFzH9lTOK7sSttGxdkmFIz7YXJkKOhrL1CBxy0]--></g></svg>