<svg xmlns="http://www.w3.org/2000/svg" xmlns:xlink="http://www.w3.org/1999/xlink" contentStyleType="text/css" data-diagram-type="DESCRIPTION" height="748px" preserveAspectRatio="none" style="width:928px;height:748px;background:#FFFFFF;" version="1.1" viewBox="0 0 928 748" width="928px" zoomAndPan="magnify"><defs/><g><!--cluster Web Application--><g class="cluster" data-entity="Web Application" data-source-line="1" data-uid="ent0002" id="cluster_Web Application"><path d="M8.5,280.4 L138.6309,280.4 A3.75,3.75 0 0 1 141.1309,282.9 L148.1309,302.6969 L918.5,302.6969 A2.5,2.5 0 0 1 921,305.1969 L921,739.15 A2.5,2.5 0 0 1 918.5,741.65 L8.5,741.65 A2.5,2.5 0 0 1 6,739.15 L6,282.9 A2.5,2.5 0 0 1 8.5,280.4" fill="none" style="stroke:#000000;stroke-width:1.5;"/><line style="stroke:#000000;stroke-width:1.5;" x1="6" x2="148.1309" y1="302.6969" y2="302.6969"/><text fill="#000000" font-family="sans-serif" font-size="14" font-weight="bold" lengthAdjust="spacing" textLength="129.1309" x="10" y="295.3951">Web Application</text></g><!--cluster User Interface--><g class="cluster" data-entity="User Interface" data-source-line="38" data-uid="ent0024" id="cluster_User Interface"><path d="M472.5,6 L586.0742,6 A3.75,3.75 0 0 1 588.5742,8.5 L595.5742,28.2969 L659.5,28.2969 A2.5,2.5 0 0 1 662,30.7969 L662,228.9 A2.5,2.5 0 0 1 659.5,231.4 L472.5,231.4 A2.5,2.5 0 0 1 470,228.9 L470,8.5 A2.5,2.5 0 0 1 472.5,6" fill="none" style="stroke:#000000;stroke-width:1.5;"/><line style="stroke:#000000;stroke-width:1.5;" x1="470" x2="595.5742" y1="28.2969" y2="28.2969"/><text fill="#000000" font-family="sans-serif" font-size="14" font-weight="bold" lengthAdjust="spacing" textLength="112.5742" x="474" y="20.9951">User Interface</text></g><!--entity Flask Application--><g class="entity" data-entity="Flask Application" data-source-line="2" data-uid="ent0003" id="entity_Flask Application"><rect fill="#F1F1F1" height="62.5938" rx="2.5" ry="2.5" style="stroke:#181818;stroke-width:0.5;" width="158.5967" x="486.7" y="315.4"/><rect fill="#F1F1F1" height="10" style="stroke:#181818;stroke-width:0.5;" width="15" x="625.2967" y="320.4"/><rect fill="#F1F1F1" height="2" style="stroke:#181818;stroke-width:0.5;" width="4" x="623.2967" y="322.4"/><rect fill="#F1F1F1" height="2" style="stroke:#181818;stroke-width:0.5;" width="4" x="623.2967" y="326.4"/><text fill="#000000" font-family="sans-serif" font-size="14" font-style="italic" lengthAdjust="spacing" textLength="98.4102" x="511.7933" y="348.3951">&#171;Component&#187;</text><text fill="#000000" font-family="sans-serif" font-size="14" lengthAdjust="spacing" textLength="118.5967" x="501.7" y="364.692">Flask Application</text></g><!--entity Emotion Recognition Library--><g class="entity" data-entity="Emotion Recognition Library" data-source-line="3" data-uid="ent0004" id="entity_Emotion Recognition Library"><rect fill="#F1F1F1" height="62.5938" rx="2.5" ry="2.5" style="stroke:#181818;stroke-width:0.5;" width="238.7891" x="517.61" y="454.99"/><rect fill="#F1F1F1" height="10" style="stroke:#181818;stroke-width:0.5;" width="15" x="736.3991" y="459.99"/><rect fill="#F1F1F1" height="2" style="stroke:#181818;stroke-width:0.5;" width="4" x="734.3991" y="461.99"/><rect fill="#F1F1F1" height="2" style="stroke:#181818;stroke-width:0.5;" width="4" x="734.3991" y="465.99"/><text fill="#000000" font-family="sans-serif" font-size="14" font-style="italic" lengthAdjust="spacing" textLength="98.4102" x="582.7995" y="487.9851">&#171;Component&#187;</text><text fill="#000000" font-family="sans-serif" font-size="14" lengthAdjust="spacing" textLength="198.7891" x="532.61" y="504.282">Emotion Recognition Library</text></g><!--entity Audio Processing Library--><g class="entity" data-entity="Audio Processing Library" data-source-line="4" data-uid="ent0005" id="entity_Audio Processing Library"><rect fill="#F1F1F1" height="62.5938" rx="2.5" ry="2.5" style="stroke:#181818;stroke-width:0.5;" width="212.9561" x="21.52" y="454.99"/><rect fill="#F1F1F1" height="10" style="stroke:#181818;stroke-width:0.5;" width="15" x="214.4761" y="459.99"/><rect fill="#F1F1F1" height="2" style="stroke:#181818;stroke-width:0.5;" width="4" x="212.4761" y="461.99"/><rect fill="#F1F1F1" height="2" style="stroke:#181818;stroke-width:0.5;" width="4" x="212.4761" y="465.99"/><text fill="#000000" font-family="sans-serif" font-size="14" font-style="italic" lengthAdjust="spacing" textLength="98.4102" x="73.7929" y="487.9851">&#171;Component&#187;</text><text fill="#000000" font-family="sans-serif" font-size="14" lengthAdjust="spacing" textLength="172.9561" x="36.52" y="504.282">Audio Processing Library</text></g><!--entity Video Processing Library--><g class="entity" data-entity="Video Processing Library" data-source-line="5" data-uid="ent0006" id="entity_Video Processing Library"><rect fill="#F1F1F1" height="62.5938" rx="2.5" ry="2.5" style="stroke:#181818;stroke-width:0.5;" width="212.6963" x="269.65" y="454.99"/><rect fill="#F1F1F1" height="10" style="stroke:#181818;stroke-width:0.5;" width="15" x="462.3463" y="459.99"/><rect fill="#F1F1F1" height="2" style="stroke:#181818;stroke-width:0.5;" width="4" x="460.3463" y="461.99"/><rect fill="#F1F1F1" height="2" style="stroke:#181818;stroke-width:0.5;" width="4" x="460.3463" y="465.99"/><text fill="#000000" font-family="sans-serif" font-size="14" font-style="italic" lengthAdjust="spacing" textLength="98.4102" x="321.7931" y="487.9851">&#171;Component&#187;</text><text fill="#000000" font-family="sans-serif" font-size="14" lengthAdjust="spacing" textLength="172.6963" x="284.65" y="504.282">Video Processing Library</text></g><!--entity VideoDB--><g class="entity" data-entity="VideoDB" data-source-line="7" data-uid="ent0007" id="entity_VideoDB"><path d="M334.8,647.47 C334.8,637.47 434.9968,637.47 434.9968,637.47 C434.9968,637.47 535.1936,637.47 535.1936,647.47 L535.1936,672.7669 C535.1936,682.7669 434.9968,682.7669 434.9968,682.7669 C434.9968,682.7669 334.8,682.7669 334.8,672.7669 L334.8,647.47" fill="#F1F1F1" style="stroke:#181818;stroke-width:0.5;"/><path d="M334.8,647.47 C334.8,657.47 434.9968,657.47 434.9968,657.47 C434.9968,657.47 535.1936,657.47 535.1936,647.47" fill="none" style="stroke:#181818;stroke-width:0.5;"/><text fill="#000000" font-family="sans-serif" font-size="14" lengthAdjust="spacing" textLength="180.3936" x="344.8" y="674.4651">Video Emotions Database</text></g><!--entity AudioDB--><g class="entity" data-entity="AudioDB" data-source-line="8" data-uid="ent0008" id="entity_AudioDB"><path d="M51.67,647.47 C51.67,637.47 151.9967,637.47 151.9967,637.47 C151.9967,637.47 252.3233,637.47 252.3233,647.47 L252.3233,672.7669 C252.3233,682.7669 151.9967,682.7669 151.9967,682.7669 C151.9967,682.7669 51.67,682.7669 51.67,672.7669 L51.67,647.47" fill="#F1F1F1" style="stroke:#181818;stroke-width:0.5;"/><path d="M51.67,647.47 C51.67,657.47 151.9967,657.47 151.9967,657.47 C151.9967,657.47 252.3233,657.47 252.3233,647.47" fill="none" style="stroke:#181818;stroke-width:0.5;"/><text fill="#000000" font-family="sans-serif" font-size="14" lengthAdjust="spacing" textLength="180.6533" x="61.67" y="674.4651">Audio Emotions Database</text></g><!--entity ProbabilityDB--><g class="entity" data-entity="ProbabilityDB" data-source-line="9" data-uid="ent0009" id="entity_ProbabilityDB"><path d="M592.78,647.47 C592.78,637.47 658.9988,637.47 658.9988,637.47 C658.9988,637.47 725.2175,637.47 725.2175,647.47 L725.2175,672.7669 C725.2175,682.7669 658.9988,682.7669 658.9988,682.7669 C658.9988,682.7669 592.78,682.7669 592.78,672.7669 L592.78,647.47" fill="#F1F1F1" style="stroke:#181818;stroke-width:0.5;"/><path d="M592.78,647.47 C592.78,657.47 658.9988,657.47 658.9988,657.47 C658.9988,657.47 725.2175,657.47 725.2175,647.47" fill="none" style="stroke:#181818;stroke-width:0.5;"/><text fill="#000000" font-family="sans-serif" font-size="14" lengthAdjust="spacing" textLength="112.4375" x="602.78" y="674.4651">Probability Data</text></g><!--entity IWebInterface--><g class="entity" data-entity="IWebInterface" data-source-line="11" data-uid="ent0010" id="entity_IWebInterface"><ellipse cx="848" cy="486.29" fill="#F1F1F1" rx="8" ry="8" style="stroke:#181818;stroke-width:0.5;"/><text fill="#000000" font-family="sans-serif" font-size="14" lengthAdjust="spacing" textLength="98.1504" x="798.9248" y="516.2851">IWebInterface</text></g><g class="entity" data-entity="GMN11" data-source-line="13" data-uid="ent0012" id="entity_GMN11"><path d="M760.68,594.59 L760.68,725.6525 A0,0 0 0 0 760.68,725.6525 L905.3133,725.6525 A0,0 0 0 0 905.3133,725.6525 L905.3133,604.59 L895.3133,594.59 L842.65,594.59 L847.32,495.12 L834.65,594.59 L760.68,594.59 A0,0 0 0 0 760.68,594.59" fill="#FEFFDD" style="stroke:#181818;stroke-width:0.5;"/><path d="M895.3133,594.59 L895.3133,604.59 L905.3133,604.59 L895.3133,594.59" fill="#FEFFDD" style="stroke:#181818;stroke-width:0.5;"/><text fill="#000000" font-family="sans-serif" font-size="13" lengthAdjust="spacing" textLength="54.7612" x="766.68" y="611.6569">- index()</text><text fill="#000000" font-family="sans-serif" font-size="13" lengthAdjust="spacing" textLength="91.2476" x="766.68" y="626.7897">- description()</text><text fill="#000000" font-family="sans-serif" font-size="13" lengthAdjust="spacing" textLength="54.4756" x="766.68" y="641.9225">- video()</text><text fill="#000000" font-family="sans-serif" font-size="13" lengthAdjust="spacing" textLength="123.1191" x="766.68" y="657.0553">- video_recording()</text><text fill="#000000" font-family="sans-serif" font-size="13" lengthAdjust="spacing" textLength="92.2061" x="766.68" y="672.1881">- video_dash()</text><text fill="#000000" font-family="sans-serif" font-size="13" lengthAdjust="spacing" textLength="54.9897" x="766.68" y="687.321">- audio()</text><text fill="#000000" font-family="sans-serif" font-size="13" lengthAdjust="spacing" textLength="123.6333" x="766.68" y="702.4538">- audio_recording()</text><text fill="#000000" font-family="sans-serif" font-size="13" lengthAdjust="spacing" textLength="92.7202" x="766.68" y="717.5866">- audio_dash()</text></g><!--entity IUserActions--><g class="entity" data-entity="IUserActions" data-source-line="39" data-uid="ent0025" id="entity_IUserActions"><ellipse cx="566" cy="186.4" fill="#F1F1F1" rx="8" ry="8" style="stroke:#181818;stroke-width:0.5;"/><text fill="#000000" font-family="sans-serif" font-size="14" lengthAdjust="spacing" textLength="87.4248" x="522.2876" y="216.3951">IUserActions</text></g><g class="entity" data-entity="GMN26" data-source-line="41" data-uid="ent0027" id="entity_GMN26"><path d="M485.82,41 L485.82,96.3984 A0,0 0 0 0 485.82,96.3984 L562,96.3984 L566,177.89 L570,96.3984 L646.1764,96.3984 A0,0 0 0 0 646.1764,96.3984 L646.1764,51 L636.1764,41 L485.82,41 A0,0 0 0 0 485.82,41" fill="#FEFFDD" style="stroke:#181818;stroke-width:0.5;"/><path d="M636.1764,41 L636.1764,51 L646.1764,51 L636.1764,41" fill="#FEFFDD" style="stroke:#181818;stroke-width:0.5;"/><text fill="#000000" font-family="sans-serif" font-size="13" lengthAdjust="spacing" textLength="139.1152" x="491.82" y="58.0669">- Start Video Analysis</text><text fill="#000000" font-family="sans-serif" font-size="13" lengthAdjust="spacing" textLength="139.3564" x="491.82" y="73.1997">- Start Audio Analysis</text><text fill="#000000" font-family="sans-serif" font-size="13" lengthAdjust="spacing" textLength="91.6157" x="491.82" y="88.3325">- View Results</text></g><!--link Flask Application to IWebInterface--><g class="link" data-entity-1="Flask Application" data-entity-2="IWebInterface" data-source-line="23" data-uid="lnk14" id="link_Flask Application_IWebInterface"><path d="M644.65,378.39 C666.38,387.42 689.8,397.65 711,407.99 C760.82,432.3 812.6696,463.5161 834.1096,476.7061" fill="none" id="Flask Application-to-IWebInterface" style="stroke:#181818;stroke-width:1;stroke-dasharray:7.0,7.0;"/><polygon fill="#181818" points="839.22,479.85,833.6504,471.7272,834.9614,477.2301,829.4585,478.541,839.22,479.85" style="stroke:#181818;stroke-width:1;"/><text fill="#000000" font-family="sans-serif" font-size="13" lengthAdjust="spacing" textLength="76.9082" x="742" y="421.0569">implements</text></g><!--link Flask Application to Emotion Recognition Library--><g class="link" data-entity-1="Flask Application" data-entity-2="Emotion Recognition Library" data-source-line="24" data-uid="lnk15" id="link_Flask Application_Emotion Recognition Library"><path d="M558.4,378.39 C556.31,393.14 556.2,410.68 563,424.99 C568.4,436.37 572.5926,442.3727 582.1826,450.7127" fill="none" id="Flask Application-to-Emotion Recognition Library" style="stroke:#181818;stroke-width:1;stroke-dasharray:7.0,7.0;"/><polygon fill="#181818" points="586.71,454.65,582.5437,445.7258,582.9371,451.3689,577.294,451.7623,586.71,454.65" style="stroke:#181818;stroke-width:1;"/><text fill="#000000" font-family="sans-serif" font-size="13" lengthAdjust="spacing" textLength="29.7832" x="564" y="421.0569">uses</text></g><!--link Emotion Recognition Library to Flask Application--><g class="link" data-entity-1="Emotion Recognition Library" data-entity-2="Flask Application" data-source-line="35" data-uid="lnk23" id="link_Emotion Recognition Library_Flask Application"><path d="M621.77,454.75 C614.62,440.5 605.95,423.35 598,407.99 C592.99,398.31 590.2686,393.0967 585.2186,383.6067" fill="none" id="Emotion Recognition Library-to-Flask Application" style="stroke:#181818;stroke-width:1;"/><polygon fill="#181818" points="582.4,378.31,583.0967,388.1342,584.7488,382.724,590.1591,384.376,582.4,378.31" style="stroke:#181818;stroke-width:1;"/><text fill="#000000" font-family="sans-serif" font-size="13" lengthAdjust="spacing" textLength="95.0054" x="607" y="421.0569">returns results</text></g><!--link Flask Application to Audio Processing Library--><g class="link" data-entity-1="Flask Application" data-entity-2="Audio Processing Library" data-source-line="25" data-uid="lnk16" id="link_Flask Application_Audio Processing Library"><path d="M486.43,372.69 C413.18,395.7 310.0243,428.1122 231.5043,452.7722" fill="none" id="Flask Application-to-Audio Processing Library" style="stroke:#181818;stroke-width:1;stroke-dasharray:7.0,7.0;"/><polygon fill="#181818" points="225.78,454.57,235.565,455.6895,230.5503,453.0718,233.168,448.0571,225.78,454.57" style="stroke:#181818;stroke-width:1;"/><text fill="#000000" font-family="sans-serif" font-size="13" lengthAdjust="spacing" textLength="29.7832" x="374" y="421.0569">uses</text></g><!--link Flask Application to Video Processing Library--><g class="link" data-entity-1="Flask Application" data-entity-2="Video Processing Library" data-source-line="26" data-uid="lnk17" id="link_Flask Application_Video Processing Library"><path d="M523.83,378.23 C492.46,400.96 454.6591,428.3202 423.2391,451.0802" fill="none" id="Flask Application-to-Video Processing Library" style="stroke:#181818;stroke-width:1;stroke-dasharray:7.0,7.0;"/><polygon fill="#181818" points="418.38,454.6,428.0152,452.5597,422.4292,451.6668,423.3221,446.0809,418.38,454.6" style="stroke:#181818;stroke-width:1;"/><text fill="#000000" font-family="sans-serif" font-size="13" lengthAdjust="spacing" textLength="29.7832" x="483" y="421.0569">uses</text></g><!--link Emotion Recognition Library to VideoDB--><g class="link" data-entity-1="Emotion Recognition Library" data-entity-2="VideoDB" data-source-line="28" data-uid="lnk18" id="link_Emotion Recognition Library_VideoDB"><path d="M600.87,517.96 C589.69,527.45 577.33,537.95 566,547.59 C529.36,578.74 491.5674,610.9291 465.1674,633.4191" fill="none" id="Emotion Recognition Library-to-VideoDB" style="stroke:#181818;stroke-width:1;"/><polygon fill="#181818" points="460.6,637.31,470.045,634.5185,464.4061,634.0676,464.8571,628.4287,460.6,637.31" style="stroke:#181818;stroke-width:1;"/><text fill="#000000" font-family="sans-serif" font-size="13" lengthAdjust="spacing" textLength="72.8711" x="567" y="560.6569">writes data</text></g><!--link Emotion Recognition Library to AudioDB--><g class="link" data-entity-1="Emotion Recognition Library" data-entity-2="AudioDB" data-source-line="29" data-uid="lnk19" id="link_Emotion Recognition Library_AudioDB"><path d="M549.04,518.02 C522.34,527.43 492.94,537.86 466,547.59 C445.5,554.99 440.7,557.76 420,564.59 C374.72,579.53 362.14,579.22 317,594.59 C279.15,607.47 242.7484,621.6507 210.6184,634.7107" fill="none" id="Emotion Recognition Library-to-AudioDB" style="stroke:#181818;stroke-width:1;"/><polygon fill="#181818" points="205.06,636.97,214.9038,637.2866,209.692,635.0872,211.8913,629.8754,205.06,636.97" style="stroke:#181818;stroke-width:1;"/><text fill="#000000" font-family="sans-serif" font-size="13" lengthAdjust="spacing" textLength="72.8711" x="467" y="560.6569">writes data</text></g><!--link Emotion Recognition Library to ProbabilityDB--><g class="link" data-entity-1="Emotion Recognition Library" data-entity-2="ProbabilityDB" data-source-line="30" data-uid="lnk20" id="link_Emotion Recognition Library_ProbabilityDB"><path d="M643.08,517.89 C644.84,527.38 646.64,537.89 648,547.59 C652.35,578.61 655.1024,608.739 656.9024,631.279" fill="none" id="Emotion Recognition Library-to-ProbabilityDB" style="stroke:#181818;stroke-width:1;"/><polygon fill="#181818" points="657.38,637.26,660.6509,627.9701,656.982,632.2759,652.6763,628.607,657.38,637.26" style="stroke:#181818;stroke-width:1;"/><text fill="#000000" font-family="sans-serif" font-size="13" lengthAdjust="spacing" textLength="99.0806" x="650" y="560.6569">generates data</text></g><!--link Audio Processing Library to AudioDB--><g class="link" data-entity-1="Audio Processing Library" data-entity-2="AudioDB" data-source-line="32" data-uid="lnk21" id="link_Audio Processing Library_AudioDB"><path d="M132.29,518.01 C137.08,552.28 143.8693,600.9178 148.0993,631.1778" fill="none" id="Audio Processing Library-to-AudioDB" style="stroke:#181818;stroke-width:1;"/><polygon fill="#181818" points="148.93,637.12,151.6455,627.6529,148.2378,632.1681,143.7225,628.7604,148.93,637.12" style="stroke:#181818;stroke-width:1;"/><text fill="#000000" font-family="sans-serif" font-size="13" lengthAdjust="spacing" textLength="69.748" x="139" y="560.6569">reads data</text></g><!--link Video Processing Library to VideoDB--><g class="link" data-entity-1="Video Processing Library" data-entity-2="VideoDB" data-source-line="33" data-uid="lnk22" id="link_Video Processing Library_VideoDB"><path d="M352.53,517.76 C344.45,531.98 338.83,549.15 345,564.59 C356.86,594.25 378.2997,616.1409 399.3497,633.2109" fill="none" id="Video Processing Library-to-VideoDB" style="stroke:#181818;stroke-width:1;"/><polygon fill="#181818" points="404.01,636.99,399.539,628.2144,400.1264,633.8407,394.5002,634.4281,404.01,636.99" style="stroke:#181818;stroke-width:1;"/><text fill="#000000" font-family="sans-serif" font-size="13" lengthAdjust="spacing" textLength="69.748" x="346" y="560.6569">reads data</text></g><!--link IUserActions to Flask Application--><g class="link" data-entity-1="IUserActions" data-entity-2="Flask Application" data-source-line="46" data-uid="lnk29" id="link_IUserActions_Flask Application"><path d="M566,195.03 C566,216.4 566,271.7 566,309.19" fill="none" id="IUserActions-to-Flask Application" style="stroke:#181818;stroke-width:1;stroke-dasharray:7.0,7.0;"/><polygon fill="#181818" points="566,315.19,570,306.19,566,310.19,562,306.19,566,315.19" style="stroke:#181818;stroke-width:1;"/><text fill="#000000" font-family="sans-serif" font-size="13" lengthAdjust="spacing" textLength="57.2749" x="567" y="260.4669">interacts</text></g><!--SRC=[dLJ1JiCm3BtlAwoTu30-O9eg5GRI90u8n3WWXDp6Az7Qf4fIneJuTzAa7UtQRXKvjNv-Zb_od1pZBIO4qnUA8CppbCTek1HJ-9w0NQztAUfj4tc3nU96PhaK94mG-ApRJ9OOF58i4y7TzpsF5AfzRtvOC2xXGScOjEOYEPcyvep69BjiXWOZr5QHfrMTQLXMm1HGWyEMrqSCtrK_ms4TXcqgmeYdtEnTkajj12t1CRWmf3OO4wpiGQ_gFuS9QGWYQOpCG6vw4ierioKOVLrSDYACTAnuNZRRYd-MuhgHTsKlHp5xW3qOG_tH2cEfjniPAEAnHX4Ip0cR3BhewYfeQuKvy2nFAREtgK_IJjjj3eMcCmM6_JU6FMp8YZrYA6Qpe7QXPUqKDwITiKPoAp_-YziogAsGa225XoBdHhIzlI9apTs73wSjkS4RsNRVVPHrJA7ij2hIHMgDypEPvFMZzgn9mS5WzPlM6COo8OpTkF_Def6v6yHZq5lzoQ0oNWU40jEzvbtO7ruFlEQqimfzgzr1QUxflTQhsId0k5Jx2m00]--></g></svg>