<svg xmlns="http://www.w3.org/2000/svg" xmlns:xlink="http://www.w3.org/1999/xlink" contentStyleType="text/css" data-diagram-type="STATE" height="684px" preserveAspectRatio="none" style="width:886px;height:684px;background:#FFFFFF;" version="1.1" viewBox="0 0 886 684" width="886px" zoomAndPan="magnify"><defs/><g><!--cluster Home--><g class="cluster" data-entity="Home" data-source-line="3" data-uid="ent0002" id="cluster_Home"><path d="M19.5,81 L203.5,81 A12.5,12.5 0 0 1 216,93.5 L216,102.2969 L7,102.2969 L7,93.5 A12.5,12.5 0 0 1 19.5,81" fill="#F1F1F1" style="stroke:#F1F1F1;stroke-width:1;"/><rect fill="none" height="325" rx="12.5" ry="12.5" style="stroke:#181818;stroke-width:0.5;" width="209" x="7" y="81"/><line style="stroke:#181818;stroke-width:0.5;" x1="7" x2="216" y1="102.2969" y2="102.2969"/><text fill="#000000" font-family="sans-serif" font-size="14" lengthAdjust="spacing" textLength="41.3438" x="90.8281" y="97.9951">Home</text></g><!--cluster VideoInit--><g class="cluster" data-entity="VideoInit" data-source-line="10" data-uid="ent0003" id="cluster_VideoInit"><path d="M304.5,329.64 L478.5,329.64 A12.5,12.5 0 0 1 491,342.14 L491,350.9369 L292,350.9369 L292,342.14 A12.5,12.5 0 0 1 304.5,329.64" fill="#F1F1F1" style="stroke:#F1F1F1;stroke-width:1;"/><rect fill="none" height="348.36" rx="12.5" ry="12.5" style="stroke:#181818;stroke-width:0.5;" width="199" x="292" y="329.64"/><line style="stroke:#181818;stroke-width:0.5;" x1="292" x2="491" y1="350.9369" y2="350.9369"/><text fill="#000000" font-family="sans-serif" font-size="14" lengthAdjust="spacing" textLength="61.9131" x="360.5435" y="346.6351">VideoInit</text></g><!--cluster AudioInit--><g class="cluster" data-entity="AudioInit" data-source-line="16" data-uid="ent0004" id="cluster_AudioInit"><path d="M543.5,329.64 L718.5,329.64 A12.5,12.5 0 0 1 731,342.14 L731,350.9369 L531,350.9369 L531,342.14 A12.5,12.5 0 0 1 543.5,329.64" fill="#F1F1F1" style="stroke:#F1F1F1;stroke-width:1;"/><rect fill="none" height="348.36" rx="12.5" ry="12.5" style="stroke:#181818;stroke-width:0.5;" width="200" x="531" y="329.64"/><line style="stroke:#181818;stroke-width:0.5;" x1="531" x2="731" y1="350.9369" y2="350.9369"/><text fill="#000000" font-family="sans-serif" font-size="14" lengthAdjust="spacing" textLength="62.1729" x="599.9136" y="346.6351">AudioInit</text></g><ellipse cx="159" cy="134" fill="#222222" rx="10" ry="10" style="stroke:#222222;stroke-width:1;"/><g id="Home.Idle"><rect fill="#F1F1F1" height="50" rx="12.5" ry="12.5" style="stroke:#181818;stroke-width:0.5;" width="50" x="134" y="205"/><line style="stroke:#181818;stroke-width:0.5;" x1="134" x2="184" y1="231.2969" y2="231.2969"/><text fill="#000000" font-family="sans-serif" font-size="14" lengthAdjust="spacing" textLength="25.5186" x="146.2407" y="222.9951">Idle</text></g><g id="Home.Description"><rect fill="#F1F1F1" height="50" rx="12.5" ry="12.5" style="stroke:#181818;stroke-width:0.5;" width="99.7344" x="31.13" y="332"/><line style="stroke:#181818;stroke-width:0.5;" x1="31.13" x2="130.8644" y1="358.2969" y2="358.2969"/><text fill="#000000" font-family="sans-serif" font-size="14" lengthAdjust="spacing" textLength="79.7344" x="41.13" y="349.9951">Description</text></g><g id="VideoInit.VideoRecording"><rect fill="#F1F1F1" height="50" rx="12.5" ry="12.5" style="stroke:#181818;stroke-width:0.5;" width="130.4277" x="315.79" y="477"/><line style="stroke:#181818;stroke-width:0.5;" x1="315.79" x2="446.2177" y1="503.2969" y2="503.2969"/><text fill="#000000" font-family="sans-serif" font-size="14" lengthAdjust="spacing" textLength="110.4277" x="325.79" y="494.9951">VideoRecording</text></g><g id="VideoInit.VideoDashboard"><rect fill="#F1F1F1" height="50" rx="12.5" ry="12.5" style="stroke:#181818;stroke-width:0.5;" width="135.7324" x="316.13" y="604"/><line style="stroke:#181818;stroke-width:0.5;" x1="316.13" x2="451.8624" y1="630.2969" y2="630.2969"/><text fill="#000000" font-family="sans-serif" font-size="14" lengthAdjust="spacing" textLength="115.7324" x="326.13" y="621.9951">VideoDashboard</text></g><g id="AudioInit.AudioRecording"><rect fill="#F1F1F1" height="50" rx="12.5" ry="12.5" style="stroke:#181818;stroke-width:0.5;" width="130.6875" x="558.66" y="477"/><line style="stroke:#181818;stroke-width:0.5;" x1="558.66" x2="689.3475" y1="503.2969" y2="503.2969"/><text fill="#000000" font-family="sans-serif" font-size="14" lengthAdjust="spacing" textLength="110.6875" x="568.66" y="494.9951">AudioRecording</text></g><g id="AudioInit.AudioDashboard"><rect fill="#F1F1F1" height="50" rx="12.5" ry="12.5" style="stroke:#181818;stroke-width:0.5;" width="135.9922" x="563" y="604"/><line style="stroke:#181818;stroke-width:0.5;" x1="563" x2="698.9922" y1="630.2969" y2="630.2969"/><text fill="#000000" font-family="sans-serif" font-size="14" lengthAdjust="spacing" textLength="115.9922" x="573" y="621.9951">AudioDashboard</text></g><ellipse cx="208" cy="16" fill="#222222" rx="10" ry="10" style="stroke:#222222;stroke-width:1;"/><!--link *start* to Home--><g class="link" data-entity-1="*start*" data-entity-2="Home" data-source-line="1" data-uid="lnk3" id="link_*start*_Home"><path d="M208,26.49 C208,33.3075 208,43.22 208,54.2912 C208,59.8269 208,65.6522 208,71.5252 C208,74.4616 208,77.41 208,80.3401 C208,80.5232 208,74.7063 208,74.8893" fill="none" id="*start*-to-Home" style="stroke:#181818;stroke-width:1;"/><polygon fill="#181818" points="208,80.8893,212,71.8893,208,75.8893,204,71.8893,208,80.8893" style="stroke:#181818;stroke-width:1;"/></g><!--link *start*Home to Idle--><g class="link" data-entity-1="*start*Home" data-entity-2="Idle" data-source-line="4" data-uid="lnk6" id="link_*start*Home_Idle"><path d="M159,144.36 C159,158.29 159,178.95 159,198.65" fill="none" id="*start*Home-to-Idle" style="stroke:#181818;stroke-width:1;"/><polygon fill="#181818" points="159,204.65,163,195.65,159,199.65,155,195.65,159,204.65" style="stroke:#181818;stroke-width:1;"/></g><!--link Idle to Description--><g class="link" data-entity-1="Idle" data-entity-2="Description" data-source-line="5" data-uid="lnk8" id="link_Idle_Description"><path d="M133.83,237.35 C110.83,244.65 78.16,259.08 63,285 C54.65,299.27 56.884,311.927 63.604,326.267" fill="none" id="Idle-to-Description" style="stroke:#181818;stroke-width:1;"/><polygon fill="#181818" points="66.15,331.7,65.953,321.8531,64.0283,327.1725,58.709,325.2478,66.15,331.7" style="stroke:#181818;stroke-width:1;"/><text fill="#000000" font-family="sans-serif" font-size="13" lengthAdjust="spacing" textLength="116.0034" x="64" y="298.0669">Go to /description</text></g><!--link Idle to VideoInit--><g class="link" data-entity-1="Idle" data-entity-2="VideoInit" data-source-line="6" data-uid="lnk9" id="link_Idle_VideoInit"><path d="M184.34,248.81 C198.78,259.13 217.12,272.52 233,285 C251.615,299.63 271.905,316.745 287.88,330.505 C288.8784,331.365 289.86,332.2119 290.8233,333.0443 C291.0641,333.2523 291.3038,333.4595 291.5423,333.6658 C291.6615,333.7689 287.2429,329.9463 287.3615,330.0489" fill="none" id="Idle-to-VideoInit" style="stroke:#181818;stroke-width:1;"/><polygon fill="#181818" points="291.8992,333.9745,287.7097,325.0611,288.1178,330.7032,282.4757,331.1112,291.8992,333.9745" style="stroke:#181818;stroke-width:1;"/><text fill="#000000" font-family="sans-serif" font-size="13" lengthAdjust="spacing" textLength="78.2856" x="253" y="298.0669">POST /video</text></g><!--link Idle to AudioInit--><g class="link" data-entity-1="Idle" data-entity-2="AudioInit" data-source-line="7" data-uid="lnk10" id="link_Idle_AudioInit"><path d="M184.43,233.74 C242.54,240.71 388.53,262.36 499,313.64 C506.0125,316.895 513.03,321.0581 519.6389,325.4986 C522.9434,327.7188 526.1457,330.0084 529.1941,332.2885 C529.5752,332.5735 529.9538,332.8583 530.33,333.1429 C530.5181,333.2852 525.9302,329.7947 526.117,329.9368" fill="none" id="Idle-to-AudioInit" style="stroke:#181818;stroke-width:1;"/><polygon fill="#181818" points="530.8923,333.5695,526.1511,324.9369,526.9129,330.5423,521.3075,331.3041,530.8923,333.5695" style="stroke:#181818;stroke-width:1;"/><text fill="#000000" font-family="sans-serif" font-size="13" lengthAdjust="spacing" textLength="78.7998" x="466" y="298.0669">POST /audio</text></g><!--link VideoInit to VideoRecording--><g class="link" data-entity-1="VideoInit" data-entity-2="VideoRecording" data-source-line="11" data-uid="lnk12" id="link_VideoInit_VideoRecording"><path d="M317.05,358.1 C318.47,361.28 349.8385,431.3837 367.7085,471.3037" fill="none" id="VideoInit-to-VideoRecording" style="stroke:#181818;stroke-width:1;"/><polygon fill="#181818" points="370.16,476.78,370.1337,466.9312,368.1171,472.2164,362.8319,470.1998,370.16,476.78" style="stroke:#181818;stroke-width:1;"/><text fill="#000000" font-family="sans-serif" font-size="13" lengthAdjust="spacing" textLength="146.9292" x="358" y="443.0669">POST /video_recording</text></g><!--link VideoRecording to VideoDashboard--><g class="link" data-entity-1="VideoRecording" data-entity-2="VideoDashboard" data-source-line="12" data-uid="lnk14" id="link_VideoRecording_VideoDashboard"><path d="M381.59,527.4 C382.11,549.42 382.7455,575.6617 383.2755,597.6617" fill="none" id="VideoRecording-to-VideoDashboard" style="stroke:#181818;stroke-width:1;"/><polygon fill="#181818" points="383.42,603.66,387.2021,594.5663,383.2996,598.6615,379.2044,594.7589,383.42,603.66" style="stroke:#181818;stroke-width:1;"/><text fill="#000000" font-family="sans-serif" font-size="13" lengthAdjust="spacing" textLength="107.98" x="384" y="570.0669">GET /video_dash</text></g><!--link VideoDashboard to Idle--><g class="link" data-entity-1="VideoDashboard" data-entity-2="Idle" data-source-line="13" data-uid="lnk15" id="link_VideoDashboard_Idle"><path d="M344.83,603.54 C299.91,573.05 228.34,516.4 196,447 C165.52,381.59 203.43,354.77 185,285 C182.32,274.84 180.4187,269.6387 175.8187,260.5887" fill="none" id="VideoDashboard-to-Idle" style="stroke:#181818;stroke-width:1;"/><polygon fill="#181818" points="173.1,255.24,173.6122,265.0755,175.3656,259.6973,180.7438,261.4506,173.1,255.24" style="stroke:#181818;stroke-width:1;"/><text fill="#000000" font-family="sans-serif" font-size="13" lengthAdjust="spacing" textLength="86.4741" x="197" y="443.0669">Return Home</text></g><!--link AudioInit to AudioRecording--><g class="link" data-entity-1="AudioInit" data-entity-2="AudioRecording" data-source-line="17" data-uid="lnk17" id="link_AudioInit_AudioRecording"><path d="M556.99,358.15 C556.77,361.31 553.57,412.35 571,447 C576.55,458.03 580.8832,464.042 589.5732,472.552" fill="none" id="AudioInit-to-AudioRecording" style="stroke:#181818;stroke-width:1;"/><polygon fill="#181818" points="593.86,476.75,590.2285,467.5951,590.2877,473.2517,584.6311,473.3109,593.86,476.75" style="stroke:#181818;stroke-width:1;"/><text fill="#000000" font-family="sans-serif" font-size="13" lengthAdjust="spacing" textLength="147.4434" x="572" y="443.0669">POST /audio_recording</text></g><!--link AudioRecording to AudioDashboard--><g class="link" data-entity-1="AudioRecording" data-entity-2="AudioDashboard" data-source-line="18" data-uid="lnk19" id="link_AudioRecording_AudioDashboard"><path d="M624.84,527.33 C625.36,541.04 626.1,558.48 627,574 C627.56,583.67 627.8672,588.3171 628.5672,597.5671" fill="none" id="AudioRecording-to-AudioDashboard" style="stroke:#181818;stroke-width:1;"/><polygon fill="#181818" points="629.02,603.55,632.3295,594.2738,628.6427,598.5643,624.3523,594.8775,629.02,603.55" style="stroke:#181818;stroke-width:1;"/><text fill="#000000" font-family="sans-serif" font-size="13" lengthAdjust="spacing" textLength="108.4941" x="628" y="570.0669">GET /audio_dash</text></g><!--link AudioDashboard to Idle--><g class="link" data-entity-1="AudioDashboard" data-entity-2="Idle" data-source-line="19" data-uid="lnk20" id="link_AudioDashboard_Idle"><path d="M699.3,608.73 C715.74,600.72 731.32,589.53 741,574 C802.2,475.79 814.7,401.16 739,313.64 C665.47,228.64 292.6492,228.7137 190.4392,230.3537" fill="none" id="AudioDashboard-to-Idle" style="stroke:#181818;stroke-width:1;"/><polygon fill="#181818" points="184.44,230.45,193.503,234.3051,189.4394,230.3698,193.3747,226.3061,184.44,230.45" style="stroke:#181818;stroke-width:1;"/><text fill="#000000" font-family="sans-serif" font-size="13" lengthAdjust="spacing" textLength="86.4741" x="792" y="443.0669">Return Home</text></g><!--SRC=[TP2n3e8m48RtFiND9eJTmSG4eqmQD2x4cCersaHRKugByTrjWVP0uWJty_tbkvQp4oJ90ZRw8HYhBRUYVOSt0oZxZpdUXHlzevqpKLT6FgtK2kQmrc0rf4ZXa3rA53fNqZfojzqV87tvP8Wi6vHZXFk4VO8GdU6jQ8hd5wBI1gMwZdzoDY4FDG9ZD-FrxQAvGR_AAbRHnQ55IBWDnnR2DaPr5nTDQHLlIbDSSshQxZeo_G5ZTsBQLNlJ7-IVwHS0]--></g></svg>