<svg xmlns="http://www.w3.org/2000/svg" xmlns:xlink="http://www.w3.org/1999/xlink" contentStyleType="text/css" data-diagram-type="SEQUENCE" height="643px" preserveAspectRatio="none" style="width:833px;height:643px;background:#FFFFFF;" version="1.1" viewBox="0 0 833 643" width="833px" zoomAndPan="magnify"><defs/><g><g><title>User</title><rect fill="#000000" fill-opacity="0.00000" height="572.3906" width="8" x="23.9551" y="36.2969"/><line style="stroke:#181818;stroke-width:0.5;stroke-dasharray:5.0,5.0;" x1="27" x2="27" y1="36.2969" y2="608.6875"/></g><g><title>WebApp</title><rect fill="#000000" fill-opacity="0.00000" height="572.3906" width="8" x="198.2676" y="36.2969"/><line style="stroke:#181818;stroke-width:0.5;stroke-dasharray:5.0,5.0;" x1="201.9209" x2="201.9209" y1="36.2969" y2="608.6875"/></g><g><title>Video Module</title><rect fill="#000000" fill-opacity="0.00000" height="572.3906" width="8" x="359.9419" y="36.2969"/><line style="stroke:#181818;stroke-width:0.5;stroke-dasharray:5.0,5.0;" x1="363.4971" x2="363.4971" y1="36.2969" y2="608.6875"/></g><g><title>Audio Module</title><rect fill="#000000" fill-opacity="0.00000" height="572.3906" width="8" x="478.9614" y="36.2969"/><line style="stroke:#181818;stroke-width:0.5;stroke-dasharray:5.0,5.0;" x1="482.3867" x2="482.3867" y1="36.2969" y2="608.6875"/></g><g><title>Analysis Module</title><rect fill="#000000" fill-opacity="0.00000" height="572.3906" width="8" x="607.0557" y="36.2969"/><line style="stroke:#181818;stroke-width:0.5;stroke-dasharray:5.0,5.0;" x1="610.5361" x2="610.5361" y1="36.2969" y2="608.6875"/></g><g><title>Database</title><rect fill="#000000" fill-opacity="0.00000" height="572.3906" width="8" x="776.8931" y="36.2969"/><line style="stroke:#181818;stroke-width:0.5;stroke-dasharray:5.0,5.0;" x1="780.4927" x2="780.4927" y1="36.2969" y2="608.6875"/></g><g class="participant participant-head" data-participant="User"><rect fill="#E2E2F0" height="30.2969" rx="2.5" ry="2.5" style="stroke:#181818;stroke-width:0.5;" width="45.9102" x="5" y="5"/><text fill="#000000" font-family="sans-serif" font-size="14" lengthAdjust="spacing" textLength="31.9102" x="12" y="24.9951">User</text></g><g class="participant participant-tail" data-participant="User"><rect fill="#E2E2F0" height="30.2969" rx="2.5" ry="2.5" style="stroke:#181818;stroke-width:0.5;" width="45.9102" x="5" y="607.6875"/><text fill="#000000" font-family="sans-serif" font-size="14" lengthAdjust="spacing" textLength="31.9102" x="12" y="627.6826">User</text></g><g class="participant participant-head" data-participant="WebApp"><rect fill="#E2E2F0" height="30.2969" rx="2.5" ry="2.5" style="stroke:#181818;stroke-width:0.5;" width="72.6934" x="165.9209" y="5"/><text fill="#000000" font-family="sans-serif" font-size="14" lengthAdjust="spacing" textLength="58.6934" x="172.9209" y="24.9951">WebApp</text></g><g class="participant participant-tail" data-participant="WebApp"><rect fill="#E2E2F0" height="30.2969" rx="2.5" ry="2.5" style="stroke:#181818;stroke-width:0.5;" width="72.6934" x="165.9209" y="607.6875"/><text fill="#000000" font-family="sans-serif" font-size="14" lengthAdjust="spacing" textLength="58.6934" x="172.9209" y="627.6826">WebApp</text></g><g class="participant participant-head" data-participant="VideoModule"><rect fill="#E2E2F0" height="30.2969" rx="2.5" ry="2.5" style="stroke:#181818;stroke-width:0.5;" width="108.8896" x="309.4971" y="5"/><text fill="#000000" font-family="sans-serif" font-size="14" lengthAdjust="spacing" textLength="94.8896" x="316.4971" y="24.9951">Video Module</text></g><g class="participant participant-tail" data-participant="VideoModule"><rect fill="#E2E2F0" height="30.2969" rx="2.5" ry="2.5" style="stroke:#181818;stroke-width:0.5;" width="108.8896" x="309.4971" y="607.6875"/><text fill="#000000" font-family="sans-serif" font-size="14" lengthAdjust="spacing" textLength="94.8896" x="316.4971" y="627.6826">Video Module</text></g><g class="participant participant-head" data-participant="AudioModule"><rect fill="#E2E2F0" height="30.2969" rx="2.5" ry="2.5" style="stroke:#181818;stroke-width:0.5;" width="109.1494" x="428.3867" y="5"/><text fill="#000000" font-family="sans-serif" font-size="14" lengthAdjust="spacing" textLength="95.1494" x="435.3867" y="24.9951">Audio Module</text></g><g class="participant participant-tail" data-participant="AudioModule"><rect fill="#E2E2F0" height="30.2969" rx="2.5" ry="2.5" style="stroke:#181818;stroke-width:0.5;" width="109.1494" x="428.3867" y="607.6875"/><text fill="#000000" font-family="sans-serif" font-size="14" lengthAdjust="spacing" textLength="95.1494" x="435.3867" y="627.6826">Audio Module</text></g><g class="participant participant-head" data-participant="AnalysisModule"><rect fill="#E2E2F0" height="30.2969" rx="2.5" ry="2.5" style="stroke:#181818;stroke-width:0.5;" width="127.0391" x="547.5361" y="5"/><text fill="#000000" font-family="sans-serif" font-size="14" lengthAdjust="spacing" textLength="113.0391" x="554.5361" y="24.9951">Analysis Module</text></g><g class="participant participant-tail" data-participant="AnalysisModule"><rect fill="#E2E2F0" height="30.2969" rx="2.5" ry="2.5" style="stroke:#181818;stroke-width:0.5;" width="127.0391" x="547.5361" y="607.6875"/><text fill="#000000" font-family="sans-serif" font-size="14" lengthAdjust="spacing" textLength="113.0391" x="554.5361" y="627.6826">Analysis Module</text></g><g class="participant participant-head" data-participant="Database"><rect fill="#E2E2F0" height="30.2969" rx="2.5" ry="2.5" style="stroke:#181818;stroke-width:0.5;" width="80.8008" x="740.4927" y="5"/><text fill="#000000" font-family="sans-serif" font-size="14" lengthAdjust="spacing" textLength="66.8008" x="747.4927" y="24.9951">Database</text></g><g class="participant participant-tail" data-participant="Database"><rect fill="#E2E2F0" height="30.2969" rx="2.5" ry="2.5" style="stroke:#181818;stroke-width:0.5;" width="80.8008" x="740.4927" y="607.6875"/><text fill="#000000" font-family="sans-serif" font-size="14" lengthAdjust="spacing" textLength="66.8008" x="747.4927" y="627.6826">Database</text></g><rect fill="#EEEEEE" height="3" style="stroke:#EEEEEE;stroke-width:1;" width="826.2935" x="0" y="66.8633"/><line style="stroke:#000000;stroke-width:1;" x1="0" x2="826.2935" y1="66.8633" y2="66.8633"/><line style="stroke:#000000;stroke-width:1;" x1="0" x2="826.2935" y1="69.8633" y2="69.8633"/><rect fill="#EEEEEE" height="23.1328" style="stroke:#000000;stroke-width:2;" width="190.2554" x="318.019" y="56.2969"/><text fill="#000000" font-family="sans-serif" font-size="13" font-weight="bold" lengthAdjust="spacing" textLength="171.7295" x="324.019" y="72.3638">Video Analysis Request</text><g class="message" data-participant-1="User" data-participant-2="WebApp"><polygon fill="#181818" points="190.2676,106.5625,200.2676,110.5625,190.2676,114.5625,194.2676,110.5625" style="stroke:#181818;stroke-width:1;"/><line style="stroke:#181818;stroke-width:1;" x1="27.9551" x2="196.2676" y1="110.5625" y2="110.5625"/><text fill="#000000" font-family="sans-serif" font-size="13" lengthAdjust="spacing" textLength="149.7983" x="34.9551" y="105.4966">Request video analysis</text></g><g class="message" data-participant-1="WebApp" data-participant-2="VideoModule"><polygon fill="#181818" points="351.9419,135.6953,361.9419,139.6953,351.9419,143.6953,355.9419,139.6953" style="stroke:#181818;stroke-width:1;"/><line style="stroke:#181818;stroke-width:1;" x1="202.2676" x2="357.9419" y1="139.6953" y2="139.6953"/><text fill="#000000" font-family="sans-serif" font-size="13" lengthAdjust="spacing" textLength="137.6743" x="209.2676" y="134.6294">Start video recording</text></g><g class="message" data-participant-1="VideoModule" data-participant-2="WebApp"><polygon fill="#181818" points="213.2676,164.8281,203.2676,168.8281,213.2676,172.8281,209.2676,168.8281" style="stroke:#181818;stroke-width:1;"/><line style="stroke:#181818;stroke-width:1;stroke-dasharray:2.0,2.0;" x1="207.2676" x2="362.9419" y1="168.8281" y2="168.8281"/><text fill="#000000" font-family="sans-serif" font-size="13" lengthAdjust="spacing" textLength="99.1313" x="219.2676" y="163.7622">Video recorded</text></g><g class="message" data-participant-1="WebApp" data-participant-2="AnalysisModule"><polygon fill="#181818" points="599.0557,193.9609,609.0557,197.9609,599.0557,201.9609,603.0557,197.9609" style="stroke:#181818;stroke-width:1;"/><line style="stroke:#181818;stroke-width:1;" x1="202.2676" x2="605.0557" y1="197.9609" y2="197.9609"/><text fill="#000000" font-family="sans-serif" font-size="13" lengthAdjust="spacing" textLength="90.8667" x="209.2676" y="192.895">Analyze video</text></g><g class="message" data-participant-1="AnalysisModule" data-participant-2="Database"><polygon fill="#181818" points="768.8931,223.0938,778.8931,227.0938,768.8931,231.0938,772.8931,227.0938" style="stroke:#181818;stroke-width:1;"/><line style="stroke:#181818;stroke-width:1;" x1="611.0557" x2="774.8931" y1="227.0938" y2="227.0938"/><text fill="#000000" font-family="sans-serif" font-size="13" lengthAdjust="spacing" textLength="145.8374" x="618.0557" y="222.0278">Retrieve emotion data</text></g><g class="message" data-participant-1="Database" data-participant-2="AnalysisModule"><polygon fill="#181818" points="622.0557,252.2266,612.0557,256.2266,622.0557,260.2266,618.0557,256.2266" style="stroke:#181818;stroke-width:1;"/><line style="stroke:#181818;stroke-width:1;stroke-dasharray:2.0,2.0;" x1="616.0557" x2="779.8931" y1="256.2266" y2="256.2266"/><text fill="#000000" font-family="sans-serif" font-size="13" lengthAdjust="spacing" textLength="87.147" x="628.0557" y="251.1606">Emotion data</text></g><g class="message" data-participant-1="AnalysisModule" data-participant-2="WebApp"><polygon fill="#181818" points="213.2676,281.3594,203.2676,285.3594,213.2676,289.3594,209.2676,285.3594" style="stroke:#181818;stroke-width:1;"/><line style="stroke:#181818;stroke-width:1;stroke-dasharray:2.0,2.0;" x1="207.2676" x2="610.0557" y1="285.3594" y2="285.3594"/><text fill="#000000" font-family="sans-serif" font-size="13" lengthAdjust="spacing" textLength="94.7578" x="219.2676" y="280.2935">Analysis result</text></g><g class="message" data-participant-1="WebApp" data-participant-2="User"><polygon fill="#181818" points="38.9551,310.4922,28.9551,314.4922,38.9551,318.4922,34.9551,314.4922" style="stroke:#181818;stroke-width:1;"/><line style="stroke:#181818;stroke-width:1;stroke-dasharray:2.0,2.0;" x1="32.9551" x2="201.2676" y1="314.4922" y2="314.4922"/><text fill="#000000" font-family="sans-serif" font-size="13" lengthAdjust="spacing" textLength="95.8877" x="44.9551" y="309.4263">Display results</text></g><rect fill="#EEEEEE" height="3" style="stroke:#EEEEEE;stroke-width:1;" width="826.2935" x="0" y="343.0586"/><line style="stroke:#000000;stroke-width:1;" x1="0" x2="826.2935" y1="343.0586" y2="343.0586"/><line style="stroke:#000000;stroke-width:1;" x1="0" x2="826.2935" y1="346.0586" y2="346.0586"/><rect fill="#EEEEEE" height="23.1328" style="stroke:#000000;stroke-width:2;" width="190.6934" x="317.8" y="332.4922"/><text fill="#000000" font-family="sans-serif" font-size="13" font-weight="bold" lengthAdjust="spacing" textLength="172.1675" x="323.8" y="348.5591">Audio Analysis Request</text><g class="message" data-participant-1="User" data-participant-2="WebApp"><polygon fill="#181818" points="190.2676,382.7578,200.2676,386.7578,190.2676,390.7578,194.2676,386.7578" style="stroke:#181818;stroke-width:1;"/><line style="stroke:#181818;stroke-width:1;" x1="27.9551" x2="196.2676" y1="386.7578" y2="386.7578"/><text fill="#000000" font-family="sans-serif" font-size="13" lengthAdjust="spacing" textLength="150.3125" x="34.9551" y="381.6919">Request audio analysis</text></g><g class="message" data-participant-1="WebApp" data-participant-2="AudioModule"><polygon fill="#181818" points="470.9614,411.8906,480.9614,415.8906,470.9614,419.8906,474.9614,415.8906" style="stroke:#181818;stroke-width:1;"/><line style="stroke:#181818;stroke-width:1;" x1="202.2676" x2="476.9614" y1="415.8906" y2="415.8906"/><text fill="#000000" font-family="sans-serif" font-size="13" lengthAdjust="spacing" textLength="138.1885" x="209.2676" y="410.8247">Start audio recording</text></g><g class="message" data-participant-1="AudioModule" data-participant-2="WebApp"><polygon fill="#181818" points="213.2676,441.0234,203.2676,445.0234,213.2676,449.0234,209.2676,445.0234" style="stroke:#181818;stroke-width:1;"/><line style="stroke:#181818;stroke-width:1;stroke-dasharray:2.0,2.0;" x1="207.2676" x2="481.9614" y1="445.0234" y2="445.0234"/><text fill="#000000" font-family="sans-serif" font-size="13" lengthAdjust="spacing" textLength="99.3726" x="219.2676" y="439.9575">Audio recorded</text></g><g class="message" data-participant-1="WebApp" data-participant-2="AnalysisModule"><polygon fill="#181818" points="599.0557,470.1563,609.0557,474.1563,599.0557,478.1563,603.0557,474.1563" style="stroke:#181818;stroke-width:1;"/><line style="stroke:#181818;stroke-width:1;" x1="202.2676" x2="605.0557" y1="474.1563" y2="474.1563"/><text fill="#000000" font-family="sans-serif" font-size="13" lengthAdjust="spacing" textLength="91.3809" x="209.2676" y="469.0903">Analyze audio</text></g><g class="message" data-participant-1="AnalysisModule" data-participant-2="Database"><polygon fill="#181818" points="768.8931,499.2891,778.8931,503.2891,768.8931,507.2891,772.8931,503.2891" style="stroke:#181818;stroke-width:1;"/><line style="stroke:#181818;stroke-width:1;" x1="611.0557" x2="774.8931" y1="503.2891" y2="503.2891"/><text fill="#000000" font-family="sans-serif" font-size="13" lengthAdjust="spacing" textLength="145.8374" x="618.0557" y="498.2231">Retrieve emotion data</text></g><g class="message" data-participant-1="Database" data-participant-2="AnalysisModule"><polygon fill="#181818" points="622.0557,528.4219,612.0557,532.4219,622.0557,536.4219,618.0557,532.4219" style="stroke:#181818;stroke-width:1;"/><line style="stroke:#181818;stroke-width:1;stroke-dasharray:2.0,2.0;" x1="616.0557" x2="779.8931" y1="532.4219" y2="532.4219"/><text fill="#000000" font-family="sans-serif" font-size="13" lengthAdjust="spacing" textLength="87.147" x="628.0557" y="527.356">Emotion data</text></g><g class="message" data-participant-1="AnalysisModule" data-participant-2="WebApp"><polygon fill="#181818" points="213.2676,557.5547,203.2676,561.5547,213.2676,565.5547,209.2676,561.5547" style="stroke:#181818;stroke-width:1;"/><line style="stroke:#181818;stroke-width:1;stroke-dasharray:2.0,2.0;" x1="207.2676" x2="610.0557" y1="561.5547" y2="561.5547"/><text fill="#000000" font-family="sans-serif" font-size="13" lengthAdjust="spacing" textLength="94.7578" x="219.2676" y="556.4888">Analysis result</text></g><g class="message" data-participant-1="WebApp" data-participant-2="User"><polygon fill="#181818" points="38.9551,586.6875,28.9551,590.6875,38.9551,594.6875,34.9551,590.6875" style="stroke:#181818;stroke-width:1;"/><line style="stroke:#181818;stroke-width:1;stroke-dasharray:2.0,2.0;" x1="32.9551" x2="201.2676" y1="590.6875" y2="590.6875"/><text fill="#000000" font-family="sans-serif" font-size="13" lengthAdjust="spacing" textLength="95.8877" x="44.9551" y="585.6216">Display results</text></g><!--SRC=[rP8zRiCm38LtdOB8dWiOS840wTYbHTEPYOY2W6kfeXmWFNsj7xjKuA4TEuhluoFvR8yXyeKzZX5UXOBngl16vuFtJMbtOaiEdfoT1je12kH2URVaORBSaBcmIOuut8IbWMjjWpzYn3CA6TFtPVnAmpDzJYGH-jwaSs3_KA_eLkcQEx1sc28dK5tImKkS9rOsqCK5o-ExKGZibVT9SMILPtj6LzvVL8nDgoP-kIsj6mFJbO0-N6GtWfqbi-Xv-htveoRllTMsQrg1P1hYkkwCfD0wEBBu0MzLbnnq-Pn_2HfpnqRGwaTOWYxiJz0AQLTNtA-2piR_9UXl]--></g></svg>