<svg xmlns="http://www.w3.org/2000/svg" xmlns:xlink="http://www.w3.org/1999/xlink" contentStyleType="text/css" data-diagram-type="CLASS" height="654px" preserveAspectRatio="none" style="width:1209px;height:654px;background:#FFFFFF;" version="1.1" viewBox="0 0 1209 654" width="1209px" zoomAndPan="magnify"><defs/><g><!--class EmotionRecognition--><g id="elem_EmotionRecognition"><rect codeLine="1" fill="#F1F1F1" height="96.8906" id="EmotionRecognition" rx="2.5" ry="2.5" style="stroke:#181818;stroke-width:0.5;" width="172.9365" x="130.82" y="534.04"/><ellipse cx="145.82" cy="550.04" fill="#A9DCDF" rx="11" ry="11" style="stroke:#181818;stroke-width:1;"/><path d="M145.9294,545.3838 L144.7731,550.4619 L147.1013,550.4619 L145.9294,545.3838 Z M144.445,543.1494 L147.4294,543.1494 L150.7888,555.54 L148.3356,555.54 L147.57,552.4775 L144.2888,552.4775 L143.5388,555.54 L141.1013,555.54 L144.445,543.1494 Z " fill="#000000"/><text fill="#000000" font-family="sans-serif" font-size="14" font-style="italic" lengthAdjust="spacing" textLength="140.9365" x="159.82" y="554.8867">EmotionRecognition</text><line style="stroke:#181818;stroke-width:0.5;" x1="131.82" x2="302.7565" y1="566.04" y2="566.04"/><rect fill="#FFFFFF" fill-opacity="0.00000" height="6" style="stroke:#C82930;stroke-width:1;" width="6" x="138.82" y="576.6884"/><text fill="#000000" font-family="sans-serif" font-size="14" lengthAdjust="spacing" textLength="50.5928" x="150.82" y="583.0351">_model</text><rect fill="#FFFFFF" fill-opacity="0.00000" height="6" style="stroke:#C82930;stroke-width:1;" width="6" x="138.82" y="592.9853"/><text fill="#000000" font-family="sans-serif" font-size="14" lengthAdjust="spacing" textLength="112.7861" x="150.82" y="599.332">_emotion_labels</text><line style="stroke:#181818;stroke-width:0.5;" x1="131.82" x2="302.7565" y1="606.6338" y2="606.6338"/><ellipse cx="141.82" cy="620.2822" fill="#84BE84" rx="3" ry="3" style="stroke:#038048;stroke-width:1;"/><text fill="#000000" font-family="sans-serif" font-size="14" lengthAdjust="spacing" textLength="60.1426" x="150.82" y="623.6289">predict()</text></g><!--class FlaskApp--><g id="elem_FlaskApp"><rect codeLine="7" fill="#F1F1F1" height="194.6719" id="FlaskApp" rx="2.5" ry="2.5" style="stroke:#181818;stroke-width:0.5;" width="153.6201" x="622.47" y="7"/><ellipse cx="663.726" cy="23" fill="#ADD1B2" rx="11" ry="11" style="stroke:#181818;stroke-width:1;"/><path d="M666.6948,28.6406 Q666.1166,28.9375 665.476,29.0781 Q664.8354,29.2344 664.1323,29.2344 Q661.6323,29.2344 660.3041,27.5938 Q658.9916,25.9375 658.9916,22.8125 Q658.9916,19.6875 660.3041,18.0313 Q661.6323,16.375 664.1323,16.375 Q664.8354,16.375 665.476,16.5313 Q666.1323,16.6875 666.6948,16.9844 L666.6948,19.7031 Q666.0698,19.125 665.476,18.8594 Q664.8823,18.5781 664.2573,18.5781 Q662.9135,18.5781 662.226,19.6563 Q661.5385,20.7188 661.5385,22.8125 Q661.5385,24.9063 662.226,25.9844 Q662.9135,27.0469 664.2573,27.0469 Q664.8823,27.0469 665.476,26.7813 Q666.0698,26.5 666.6948,25.9219 L666.6948,28.6406 Z " fill="#000000"/><text fill="#000000" font-family="sans-serif" font-size="14" lengthAdjust="spacing" textLength="63.2734" x="683.5607" y="27.8467">FlaskApp</text><line style="stroke:#181818;stroke-width:0.5;" x1="623.47" x2="775.0901" y1="39" y2="39"/><rect fill="#FFFFFF" fill-opacity="0.00000" height="6" style="stroke:#C82930;stroke-width:1;" width="6" x="630.47" y="49.6484"/><text fill="#000000" font-family="sans-serif" font-size="14" lengthAdjust="spacing" textLength="75.4688" x="642.47" y="55.9951">secret_key</text><rect fill="#FFFFFF" fill-opacity="0.00000" height="6" style="stroke:#C82930;stroke-width:1;" width="6" x="630.47" y="65.9453"/><text fill="#000000" font-family="sans-serif" font-size="14" lengthAdjust="spacing" textLength="42.8408" x="642.47" y="72.292">config</text><rect fill="#FFFFFF" fill-opacity="0.00000" height="6" style="stroke:#C82930;stroke-width:1;" width="6" x="630.47" y="82.2422"/><text fill="#000000" font-family="sans-serif" font-size="14" lengthAdjust="spacing" textLength="44.5908" x="642.47" y="88.5889">routes</text><line style="stroke:#181818;stroke-width:0.5;" x1="623.47" x2="775.0901" y1="95.8906" y2="95.8906"/><ellipse cx="633.47" cy="109.5391" fill="#84BE84" rx="3" ry="3" style="stroke:#038048;stroke-width:1;"/><text fill="#000000" font-family="sans-serif" font-size="14" lengthAdjust="spacing" textLength="48.2207" x="642.47" y="112.8857">route()</text><ellipse cx="633.47" cy="125.8359" fill="#84BE84" rx="3" ry="3" style="stroke:#038048;stroke-width:1;"/><text fill="#000000" font-family="sans-serif" font-size="14" lengthAdjust="spacing" textLength="34.4258" x="642.47" y="129.1826">run()</text><ellipse cx="633.47" cy="142.1328" fill="#84BE84" rx="3" ry="3" style="stroke:#038048;stroke-width:1;"/><text fill="#000000" font-family="sans-serif" font-size="14" lengthAdjust="spacing" textLength="127.6201" x="642.47" y="145.4795">render_template()</text><ellipse cx="633.47" cy="158.4297" fill="#84BE84" rx="3" ry="3" style="stroke:#038048;stroke-width:1;"/><text fill="#000000" font-family="sans-serif" font-size="14" lengthAdjust="spacing" textLength="44.4883" x="642.47" y="161.7764">flash()</text><ellipse cx="633.47" cy="174.7266" fill="#84BE84" rx="3" ry="3" style="stroke:#038048;stroke-width:1;"/><text fill="#000000" font-family="sans-serif" font-size="14" lengthAdjust="spacing" textLength="65.625" x="642.47" y="178.0732">redirect()</text><ellipse cx="633.47" cy="191.0234" fill="#84BE84" rx="3" ry="3" style="stroke:#038048;stroke-width:1;"/><text fill="#000000" font-family="sans-serif" font-size="14" lengthAdjust="spacing" textLength="62.7471" x="642.47" y="194.3701">session()</text></g><!--class SpeechEmotionRecognition--><g id="elem_SpeechEmotionRecognition"><rect codeLine="19" fill="#F1F1F1" height="129.4844" id="SpeechEmotionRecognition" rx="2.5" ry="2.5" style="stroke:#181818;stroke-width:0.5;" width="306.5674" x="7" y="294.96"/><ellipse cx="59.7803" cy="310.96" fill="#ADD1B2" rx="11" ry="11" style="stroke:#181818;stroke-width:1;"/><path d="M62.749,316.6006 Q62.1709,316.8975 61.5303,317.0381 Q60.8896,317.1944 60.1865,317.1944 Q57.6865,317.1944 56.3584,315.5538 Q55.0459,313.8975 55.0459,310.7725 Q55.0459,307.6475 56.3584,305.9913 Q57.6865,304.335 60.1865,304.335 Q60.8896,304.335 61.5303,304.4913 Q62.1865,304.6475 62.749,304.9444 L62.749,307.6631 Q62.124,307.085 61.5303,306.8194 Q60.9365,306.5381 60.3115,306.5381 Q58.9678,306.5381 58.2803,307.6163 Q57.5928,308.6788 57.5928,310.7725 Q57.5928,312.8663 58.2803,313.9444 Q58.9678,315.0069 60.3115,315.0069 Q60.9365,315.0069 61.5303,314.7413 Q62.124,314.46 62.749,313.8819 L62.749,316.6006 Z " fill="#000000"/><text fill="#000000" font-family="sans-serif" font-size="14" lengthAdjust="spacing" textLength="192.5068" x="80.2803" y="315.8067">SpeechEmotionRecognition</text><line style="stroke:#181818;stroke-width:0.5;" x1="8" x2="312.5674" y1="326.96" y2="326.96"/><rect fill="#FFFFFF" fill-opacity="0.00000" height="6" style="stroke:#C82930;stroke-width:1;" width="6" x="15" y="337.6084"/><text fill="#000000" font-family="sans-serif" font-size="14" lengthAdjust="spacing" textLength="96.3867" x="27" y="343.9551">_audio_model</text><line style="stroke:#181818;stroke-width:0.5;" x1="8" x2="312.5674" y1="351.2569" y2="351.2569"/><ellipse cx="18" cy="364.9053" fill="#84BE84" rx="3" ry="3" style="stroke:#038048;stroke-width:1;"/><text fill="#000000" font-family="sans-serif" font-size="14" lengthAdjust="spacing" textLength="250.7354" x="27" y="368.252">voice_recording(filename, duration)</text><ellipse cx="18" cy="381.2022" fill="#84BE84" rx="3" ry="3" style="stroke:#038048;stroke-width:1;"/><text fill="#000000" font-family="sans-serif" font-size="14" lengthAdjust="spacing" textLength="163.4609" x="27" y="384.5489">mel_spectrogram(y, sr)</text><ellipse cx="18" cy="397.4991" fill="#84BE84" rx="3" ry="3" style="stroke:#038048;stroke-width:1;"/><text fill="#000000" font-family="sans-serif" font-size="14" lengthAdjust="spacing" textLength="254.0098" x="27" y="400.8457">predict_emotion_from_file(filename)</text><ellipse cx="18" cy="413.7959" fill="#84BE84" rx="3" ry="3" style="stroke:#038048;stroke-width:1;"/><text fill="#000000" font-family="sans-serif" font-size="14" lengthAdjust="spacing" textLength="280.5674" x="27" y="417.1426">prediction_to_csv(predictions, filename)</text></g><!--class VideoEmotionRecognition--><g id="elem_VideoEmotionRecognition"><rect codeLine="27" fill="#F1F1F1" height="162.0781" id="VideoEmotionRecognition" rx="2.5" ry="2.5" style="stroke:#181818;stroke-width:0.5;" width="280.6934" x="348.94" y="278.67"/><ellipse cx="394.8023" cy="294.67" fill="#ADD1B2" rx="11" ry="11" style="stroke:#181818;stroke-width:1;"/><path d="M397.7711,300.3106 Q397.1929,300.6075 396.5523,300.7481 Q395.9117,300.9044 395.2086,300.9044 Q392.7086,300.9044 391.3804,299.2638 Q390.0679,297.6075 390.0679,294.4825 Q390.0679,291.3575 391.3804,289.7013 Q392.7086,288.045 395.2086,288.045 Q395.9117,288.045 396.5523,288.2013 Q397.2086,288.3575 397.7711,288.6544 L397.7711,291.3731 Q397.1461,290.795 396.5523,290.5294 Q395.9586,290.2481 395.3336,290.2481 Q393.9898,290.2481 393.3023,291.3263 Q392.6148,292.3888 392.6148,294.4825 Q392.6148,296.5763 393.3023,297.6544 Q393.9898,298.7169 395.3336,298.7169 Q395.9586,298.7169 396.5523,298.4513 Q397.1461,298.17 397.7711,297.5919 L397.7711,300.3106 Z " fill="#000000"/><text fill="#000000" font-family="sans-serif" font-size="14" lengthAdjust="spacing" textLength="180.4688" x="415.3023" y="299.5167">VideoEmotionRecognition</text><line style="stroke:#181818;stroke-width:0.5;" x1="349.94" x2="628.6334" y1="310.67" y2="310.67"/><rect fill="#FFFFFF" fill-opacity="0.00000" height="6" style="stroke:#C82930;stroke-width:1;" width="6" x="356.94" y="321.3184"/><text fill="#000000" font-family="sans-serif" font-size="14" lengthAdjust="spacing" textLength="95.833" x="368.94" y="327.6651">_video_model</text><rect fill="#FFFFFF" fill-opacity="0.00000" height="6" style="stroke:#C82930;stroke-width:1;" width="6" x="356.94" y="337.6153"/><text fill="#000000" font-family="sans-serif" font-size="14" lengthAdjust="spacing" textLength="102.9287" x="368.94" y="343.962">_face_detector</text><rect fill="#FFFFFF" fill-opacity="0.00000" height="6" style="stroke:#C82930;stroke-width:1;" width="6" x="356.94" y="353.9122"/><text fill="#000000" font-family="sans-serif" font-size="14" lengthAdjust="spacing" textLength="143.8486" x="368.94" y="360.2589">_landmark_predictor</text><line style="stroke:#181818;stroke-width:0.5;" x1="349.94" x2="628.6334" y1="367.5606" y2="367.5606"/><ellipse cx="359.94" cy="381.2091" fill="#84BE84" rx="3" ry="3" style="stroke:#038048;stroke-width:1;"/><text fill="#000000" font-family="sans-serif" font-size="14" lengthAdjust="spacing" textLength="37.2969" x="368.94" y="384.5557">gen()</text><ellipse cx="359.94" cy="397.5059" fill="#84BE84" rx="3" ry="3" style="stroke:#038048;stroke-width:1;"/><text fill="#000000" font-family="sans-serif" font-size="14" lengthAdjust="spacing" textLength="134.0459" x="368.94" y="400.8526">detect_face(frame)</text><ellipse cx="359.94" cy="413.8028" fill="#84BE84" rx="3" ry="3" style="stroke:#038048;stroke-width:1;"/><text fill="#000000" font-family="sans-serif" font-size="14" lengthAdjust="spacing" textLength="199.9102" x="368.94" y="417.1495">extract_face_features(faces)</text><ellipse cx="359.94" cy="430.0997" fill="#84BE84" rx="3" ry="3" style="stroke:#038048;stroke-width:1;"/><text fill="#000000" font-family="sans-serif" font-size="14" lengthAdjust="spacing" textLength="254.6934" x="368.94" y="433.4464">predict_emotion_from_frame(frame)</text></g><!--class DataHandler--><g id="elem_DataHandler"><rect codeLine="37" fill="#F1F1F1" height="129.4844" id="DataHandler" rx="2.5" ry="2.5" style="stroke:#181818;stroke-width:0.5;" width="158.9453" x="409.81" y="517.75"/><ellipse cx="442.0867" cy="533.75" fill="#ADD1B2" rx="11" ry="11" style="stroke:#181818;stroke-width:1;"/><path d="M445.0554,539.3906 Q444.4773,539.6875 443.8367,539.8281 Q443.196,539.9844 442.4929,539.9844 Q439.9929,539.9844 438.6648,538.3438 Q437.3523,536.6875 437.3523,533.5625 Q437.3523,530.4375 438.6648,528.7813 Q439.9929,527.125 442.4929,527.125 Q443.196,527.125 443.8367,527.2813 Q444.4929,527.4375 445.0554,527.7344 L445.0554,530.4531 Q444.4304,529.875 443.8367,529.6094 Q443.2429,529.3281 442.6179,529.3281 Q441.2742,529.3281 440.5867,530.4063 Q439.8992,531.4688 439.8992,533.5625 Q439.8992,535.6563 440.5867,536.7344 Q441.2742,537.7969 442.6179,537.7969 Q443.2429,537.7969 443.8367,537.5313 Q444.4304,537.25 445.0554,536.6719 L445.0554,539.3906 Z " fill="#000000"/><text fill="#000000" font-family="sans-serif" font-size="14" lengthAdjust="spacing" textLength="88.5527" x="459.9259" y="538.5967">DataHandler</text><line style="stroke:#181818;stroke-width:0.5;" x1="410.81" x2="567.7553" y1="549.75" y2="549.75"/><rect fill="#FFFFFF" fill-opacity="0.00000" height="6" style="stroke:#C82930;stroke-width:1;" width="6" x="417.81" y="560.3984"/><text fill="#000000" font-family="sans-serif" font-size="14" lengthAdjust="spacing" textLength="31.5342" x="429.81" y="566.7451">data</text><line style="stroke:#181818;stroke-width:0.5;" x1="410.81" x2="567.7553" y1="574.0469" y2="574.0469"/><ellipse cx="420.81" cy="587.6953" fill="#84BE84" rx="3" ry="3" style="stroke:#038048;stroke-width:1;"/><text fill="#000000" font-family="sans-serif" font-size="14" lengthAdjust="spacing" textLength="126.1846" x="429.81" y="591.042">read_csv(filepath)</text><ellipse cx="420.81" cy="603.9922" fill="#84BE84" rx="3" ry="3" style="stroke:#038048;stroke-width:1;"/><text fill="#000000" font-family="sans-serif" font-size="14" lengthAdjust="spacing" textLength="108.4043" x="429.81" y="607.3389">to_csv(filepath)</text><ellipse cx="420.81" cy="620.2891" fill="#84BE84" rx="3" ry="3" style="stroke:#038048;stroke-width:1;"/><text fill="#000000" font-family="sans-serif" font-size="14" lengthAdjust="spacing" textLength="132.9453" x="429.81" y="623.6357">get_value_counts()</text><ellipse cx="420.81" cy="636.5859" fill="#84BE84" rx="3" ry="3" style="stroke:#038048;stroke-width:1;"/><text fill="#000000" font-family="sans-serif" font-size="14" lengthAdjust="spacing" textLength="80.6162" x="429.81" y="639.9326">get_mode()</text></g><!--class Visualization--><g id="elem_Visualization"><rect codeLine="45" fill="#F1F1F1" height="129.4844" id="Visualization" rx="2.5" ry="2.5" style="stroke:#181818;stroke-width:0.5;" width="166.2393" x="829.16" y="294.96"/><ellipse cx="864.6359" cy="310.96" fill="#ADD1B2" rx="11" ry="11" style="stroke:#181818;stroke-width:1;"/><path d="M867.6046,316.6006 Q867.0265,316.8975 866.3859,317.0381 Q865.7453,317.1944 865.0421,317.1944 Q862.5421,317.1944 861.214,315.5538 Q859.9015,313.8975 859.9015,310.7725 Q859.9015,307.6475 861.214,305.9913 Q862.5421,304.335 865.0421,304.335 Q865.7453,304.335 866.3859,304.4913 Q867.0421,304.6475 867.6046,304.9444 L867.6046,307.6631 Q866.9796,307.085 866.3859,306.8194 Q865.7921,306.5381 865.1671,306.5381 Q863.8234,306.5381 863.1359,307.6163 Q862.4484,308.6788 862.4484,310.7725 Q862.4484,312.8663 863.1359,313.9444 Q863.8234,315.0069 865.1671,315.0069 Q865.7921,315.0069 866.3859,314.7413 Q866.9796,314.46 867.6046,313.8819 L867.6046,316.6006 Z " fill="#000000"/><text fill="#000000" font-family="sans-serif" font-size="14" lengthAdjust="spacing" textLength="88.7373" x="883.1861" y="315.8067">Visualization</text><line style="stroke:#181818;stroke-width:0.5;" x1="830.16" x2="994.3993" y1="326.96" y2="326.96"/><rect fill="#FFFFFF" fill-opacity="0.00000" height="6" style="stroke:#C82930;stroke-width:1;" width="6" x="837.16" y="337.6084"/><text fill="#000000" font-family="sans-serif" font-size="14" lengthAdjust="spacing" textLength="36.3945" x="849.16" y="343.9551">chart</text><line style="stroke:#181818;stroke-width:0.5;" x1="830.16" x2="994.3993" y1="351.2569" y2="351.2569"/><ellipse cx="840.16" cy="364.9053" fill="#84BE84" rx="3" ry="3" style="stroke:#038048;stroke-width:1;"/><text fill="#000000" font-family="sans-serif" font-size="14" lengthAdjust="spacing" textLength="99.0664" x="849.16" y="368.252">create_chart()</text><ellipse cx="840.16" cy="381.2022" fill="#84BE84" rx="3" ry="3" style="stroke:#038048;stroke-width:1;"/><text fill="#000000" font-family="sans-serif" font-size="14" lengthAdjust="spacing" textLength="79.2695" x="849.16" y="384.5489">mark_line()</text><ellipse cx="840.16" cy="397.4991" fill="#84BE84" rx="3" ry="3" style="stroke:#038048;stroke-width:1;"/><text fill="#000000" font-family="sans-serif" font-size="14" lengthAdjust="spacing" textLength="62.1729" x="849.16" y="400.8457">encode()</text><ellipse cx="840.16" cy="413.7959" fill="#84BE84" rx="3" ry="3" style="stroke:#038048;stroke-width:1;"/><text fill="#000000" font-family="sans-serif" font-size="14" lengthAdjust="spacing" textLength="140.2393" x="849.16" y="417.1426">save_chart(filepath)</text></g><!--class StreamingResponse--><g id="elem_StreamingResponse"><rect codeLine="53" fill="#F1F1F1" height="80.5938" id="StreamingResponse" rx="2.5" ry="2.5" style="stroke:#181818;stroke-width:0.5;" width="172.4785" x="1030.04" y="319.41"/><ellipse cx="1045.04" cy="335.41" fill="#ADD1B2" rx="11" ry="11" style="stroke:#181818;stroke-width:1;"/><path d="M1048.0088,341.0506 Q1047.4306,341.3475 1046.79,341.4881 Q1046.1494,341.6444 1045.4463,341.6444 Q1042.9463,341.6444 1041.6181,340.0038 Q1040.3056,338.3475 1040.3056,335.2225 Q1040.3056,332.0975 1041.6181,330.4413 Q1042.9463,328.785 1045.4463,328.785 Q1046.1494,328.785 1046.79,328.9413 Q1047.4463,329.0975 1048.0088,329.3944 L1048.0088,332.1131 Q1047.3838,331.535 1046.79,331.2694 Q1046.1963,330.9881 1045.5713,330.9881 Q1044.2275,330.9881 1043.54,332.0663 Q1042.8525,333.1288 1042.8525,335.2225 Q1042.8525,337.3163 1043.54,338.3944 Q1044.2275,339.4569 1045.5713,339.4569 Q1046.1963,339.4569 1046.79,339.1913 Q1047.3838,338.91 1048.0088,338.3319 L1048.0088,341.0506 Z " fill="#000000"/><text fill="#000000" font-family="sans-serif" font-size="14" lengthAdjust="spacing" textLength="140.4785" x="1059.04" y="340.2567">StreamingResponse</text><line style="stroke:#181818;stroke-width:0.5;" x1="1031.04" x2="1201.5185" y1="351.41" y2="351.41"/><rect fill="#FFFFFF" fill-opacity="0.00000" height="6" style="stroke:#C82930;stroke-width:1;" width="6" x="1038.04" y="362.0584"/><text fill="#000000" font-family="sans-serif" font-size="14" lengthAdjust="spacing" textLength="49.3691" x="1050.04" y="368.4051">stream</text><line style="stroke:#181818;stroke-width:0.5;" x1="1031.04" x2="1201.5185" y1="375.7069" y2="375.7069"/><ellipse cx="1041.04" cy="389.3553" fill="#84BE84" rx="3" ry="3" style="stroke:#038048;stroke-width:1;"/><text fill="#000000" font-family="sans-serif" font-size="14" lengthAdjust="spacing" textLength="105.5332" x="1050.04" y="392.702">stream_video()</text></g><!--link FlaskApp to SpeechEmotionRecognition--><g id="link_FlaskApp_SpeechEmotionRecognition"><path codeLine="58" d="M622.06,141.63 C537.35,181.45 405.1898,243.5772 302.1998,291.9972 " fill="#FFFFFF" fill-opacity="0.00000" id="FlaskApp-to-SpeechEmotionRecognition" style="stroke:#181818;stroke-width:1;"/><polygon fill="#181818" points="296.77,294.55,306.6166,294.3407,301.2949,292.4227,303.2129,287.1009,296.77,294.55" style="stroke:#181818;stroke-width:1;"/><text fill="#000000" font-family="sans-serif" font-size="13" lengthAdjust="spacing" textLength="29.7832" x="431.28" y="244.7369">uses</text></g><!--link FlaskApp to VideoEmotionRecognition--><g id="link_FlaskApp_VideoEmotionRecognition"><path codeLine="59" d="M621.98,198.6 C600.23,224.85 580.5988,248.5304 559.5388,273.9404 " fill="#FFFFFF" fill-opacity="0.00000" id="FlaskApp-to-VideoEmotionRecognition" style="stroke:#181818;stroke-width:1;"/><polygon fill="#181818" points="555.71,278.56,564.5329,274.1831,558.9006,274.7103,558.3734,269.0781,555.71,278.56" style="stroke:#181818;stroke-width:1;"/><text fill="#000000" font-family="sans-serif" font-size="13" lengthAdjust="spacing" textLength="29.7832" x="595.28" y="244.7369">uses</text></g><!--link FlaskApp to DataHandler--><g id="link_FlaskApp_DataHandler"><path codeLine="60" d="M705.72,201.8 C706.22,285.82 694.02,406.56 630.28,487.75 C613.77,508.79 596.2109,523.4558 573.9509,537.8258 " fill="#FFFFFF" fill-opacity="0.00000" id="FlaskApp-to-DataHandler" style="stroke:#181818;stroke-width:1;"/><polygon fill="#181818" points="568.91,541.08,578.6408,539.5594,573.1107,538.3682,574.3019,532.8382,568.91,541.08" style="stroke:#181818;stroke-width:1;"/><text fill="#000000" font-family="sans-serif" font-size="13" lengthAdjust="spacing" textLength="93.2725" x="703.28" y="364.2769">manages data</text></g><!--link FlaskApp to StreamingResponse--><g id="link_FlaskApp_StreamingResponse"><path codeLine="61" d="M776.59,142.07 C841.91,174.47 936.77,224.82 1013.28,278.67 C1031.25,291.31 1045.6678,302.1585 1062.5078,315.3585 " fill="#FFFFFF" fill-opacity="0.00000" id="FlaskApp-to-StreamingResponse" style="stroke:#181818;stroke-width:1;"/><polygon fill="#181818" points="1067.23,319.06,1062.6144,310.3597,1063.2948,315.9754,1057.6791,316.6559,1067.23,319.06" style="stroke:#181818;stroke-width:1;"/><text fill="#000000" font-family="sans-serif" font-size="13" lengthAdjust="spacing" textLength="92.2568" x="965.28" y="244.7369">streams video</text></g><!--link FlaskApp to Visualization--><g id="link_FlaskApp_Visualization"><path codeLine="62" d="M776.48,197.16 C803.63,229.45 829.6696,260.4268 854.4796,289.9468 " fill="#FFFFFF" fill-opacity="0.00000" id="FlaskApp-to-Visualization" style="stroke:#181818;stroke-width:1;"/><polygon fill="#181818" points="858.34,294.54,855.6116,285.0766,855.123,290.7123,849.4873,290.2237,858.34,294.54" style="stroke:#181818;stroke-width:1;"/><text fill="#000000" font-family="sans-serif" font-size="13" lengthAdjust="spacing" textLength="110.3667" x="820.28" y="244.7369">generates charts</text></g><!--link SpeechEmotionRecognition to DataHandler--><g id="link_SpeechEmotionRecognition_DataHandler"><path codeLine="64" d="M254.87,424.82 C284.72,445.01 317.85,467.35 348.28,487.75 C368.06,501 384.4435,511.9381 404.4335,525.2281 " fill="#FFFFFF" fill-opacity="0.00000" id="SpeechEmotionRecognition-to-DataHandler" style="stroke:#181818;stroke-width:1;"/><polygon fill="#181818" points="409.43,528.55,404.1498,520.2362,405.2662,525.7818,399.7206,526.8982,409.43,528.55" style="stroke:#181818;stroke-width:1;"/><text fill="#000000" font-family="sans-serif" font-size="13" lengthAdjust="spacing" textLength="131.0029" x="349.28" y="483.8169">stores emotion data</text></g><!--link VideoEmotionRecognition to DataHandler--><g id="link_VideoEmotionRecognition_DataHandler"><path codeLine="65" d="M489.28,441.04 C489.28,466.19 489.28,487.6 489.28,511.47 " fill="#FFFFFF" fill-opacity="0.00000" id="VideoEmotionRecognition-to-DataHandler" style="stroke:#181818;stroke-width:1;"/><polygon fill="#181818" points="489.28,517.47,493.28,508.47,489.28,512.47,485.28,508.47,489.28,517.47" style="stroke:#181818;stroke-width:1;"/><text fill="#000000" font-family="sans-serif" font-size="13" lengthAdjust="spacing" textLength="131.0029" x="490.28" y="483.8169">stores emotion data</text></g><!--link SpeechEmotionRecognition to EmotionRecognition--><g id="link_SpeechEmotionRecognition_EmotionRecognition"><path codeLine="67" d="M176.85,424.86 C185.82,459.62 192.2219,484.4111 200.4419,516.2611 " fill="#FFFFFF" fill-opacity="0.00000" id="SpeechEmotionRecognition-to-EmotionRecognition" style="stroke:#181818;stroke-width:1;"/><polygon fill="#FFFFFF" fill-opacity="0.00000" points="204.94,533.69,206.2515,514.7617,194.6322,517.7605,204.94,533.69" style="stroke:#181818;stroke-width:1;"/></g><!--link VideoEmotionRecognition to EmotionRecognition--><g id="link_VideoEmotionRecognition_EmotionRecognition"><path codeLine="68" d="M348.57,432.32 C342.74,435.18 336.96,438 331.28,440.75 C302.64,454.6 288.6,448.07 266.28,470.75 C249.25,488.05 243.6646,495.3288 236.0246,516.7188 " fill="#FFFFFF" fill-opacity="0.00000" id="VideoEmotionRecognition-to-EmotionRecognition" style="stroke:#181818;stroke-width:1;"/><polygon fill="#FFFFFF" fill-opacity="0.00000" points="229.97,533.67,241.6749,518.737,230.3742,514.7006,229.97,533.67" style="stroke:#181818;stroke-width:1;"/></g><!--SRC=[ZLJBRjim4BphAuYS5DZ-WHm256YBdbEWLs93hcJ2V0XSIaZw-FUkIBtSM4Olnd8r7CuEXuPNIX5K4ie2aVZYGZB1lw0AhJTZANvLGfo4T46ZBIKMaBJmYfQuTn1TH6rKgX-hFrLLgBxox-LJrqq4X2fYaXTypqiLV6FQNCRG9omqkMIINFT-hj1hZ3AXwomitnlcFoy8RIBcyySb8H4BtAhvtY6gy_vuq6iJbY4FOWX6eMJE4BNnRTqOYnuS7eNk8umxor4EhQIEZuwXZU3gzwEW-BZrPB6hYS79aMSXkyADa1Iaeg5UEtGKAtWPveVH6FPd6SRFsmjhW6VHc5XcYALbmMi7yIAditB_85gSJI_mlBLkuY8Mtt9S2cM3aFg8L8yhkZVrI33JB6DyXWJVM8V5E4dNt9ak57IsOfo-WtGkv9C_rysMOpM0xL6gqFj4zTeUFQYlZACUhFa96xlK6MBAEpYW72-P6nD9jiWQFuSElIgKEMOmpEXLqPgun7IEi_E2rF5DulmGShyGvBBSLv6vF9hJwNa_iq_YeUUCFrp3zr9n6xqrdn4EFBH8-GR-GNuSXF55Eeci_OEGhSiCvbGXFngcpswnb6ftjXlQYDF9UwT4JHBtfltV_VSK_7w-yKTuvyIR-By0]--></g></svg>