<svg xmlns="http://www.w3.org/2000/svg" xmlns:xlink="http://www.w3.org/1999/xlink" contentStyleType="text/css" data-diagram-type="DESCRIPTION" height="599px" preserveAspectRatio="none" style="width:799px;height:599px;background:#FFFFFF;" version="1.1" viewBox="0 0 799 599" width="799px" zoomAndPan="magnify"><defs/><g><!--cluster User Device--><g class="cluster" data-entity="User Device" data-source-line="1" data-uid="ent0002" id="cluster_User Device"><polygon fill="none" points="315,16,325,6,484,6,484,114.6,474,124.6,315,124.6,315,16" style="stroke:#181818;stroke-width:1;"/><line style="stroke:#181818;stroke-width:1;" x1="474" x2="484" y1="16" y2="6"/><line style="stroke:#181818;stroke-width:1;" x1="315" x2="474" y1="16" y2="16"/><line style="stroke:#181818;stroke-width:1;" x1="474" x2="474" y1="16" y2="124.6"/><text fill="#000000" font-family="sans-serif" font-size="14" font-weight="bold" lengthAdjust="spacing" textLength="93.8096" x="348.5952" y="31.9951">User Device</text></g><!--cluster Web Server--><g class="cluster" data-entity="Web Server" data-source-line="5" data-uid="ent0004" id="cluster_Web Server"><polygon fill="none" points="16,183.6,26,173.6,782,173.6,782,421.78,772,431.78,16,431.78,16,183.6" style="stroke:#181818;stroke-width:1;"/><line style="stroke:#181818;stroke-width:1;" x1="772" x2="782" y1="183.6" y2="173.6"/><line style="stroke:#181818;stroke-width:1;" x1="16" x2="772" y1="183.6" y2="183.6"/><line style="stroke:#181818;stroke-width:1;" x1="772" x2="772" y1="183.6" y2="431.78"/><text fill="#000000" font-family="sans-serif" font-size="14" font-weight="bold" lengthAdjust="spacing" textLength="91.8408" x="349.0796" y="199.5951">Web Server</text></g><!--cluster Database Server--><g class="cluster" data-entity="Database Server" data-source-line="12" data-uid="ent0009" id="cluster_Database Server"><polygon fill="none" points="81,490.78,91,480.78,716,480.78,716,572.08,706,582.08,81,582.08,81,490.78" style="stroke:#181818;stroke-width:1;"/><line style="stroke:#181818;stroke-width:1;" x1="706" x2="716" y1="490.78" y2="480.78"/><line style="stroke:#181818;stroke-width:1;" x1="81" x2="706" y1="490.78" y2="490.78"/><line style="stroke:#181818;stroke-width:1;" x1="706" x2="706" y1="490.78" y2="582.08"/><text fill="#000000" font-family="sans-serif" font-size="14" font-weight="bold" lengthAdjust="spacing" textLength="131.3867" x="328.8066" y="506.7751">Database Server</text></g><!--entity Web Browser--><g class="entity" data-entity="Web Browser" data-source-line="2" data-uid="ent0003" id="entity_Web Browser"><rect fill="#F1F1F1" height="62.5938" rx="2.5" ry="2.5" style="stroke:#181818;stroke-width:0.5;" width="132.832" x="332.58" y="46"/><rect fill="#F1F1F1" height="10" style="stroke:#181818;stroke-width:0.5;" width="15" x="445.412" y="51"/><rect fill="#F1F1F1" height="2" style="stroke:#181818;stroke-width:0.5;" width="4" x="443.412" y="53"/><rect fill="#F1F1F1" height="2" style="stroke:#181818;stroke-width:0.5;" width="4" x="443.412" y="57"/><text fill="#000000" font-family="sans-serif" font-size="14" font-style="italic" lengthAdjust="spacing" textLength="65.0098" x="361.4911" y="78.9951">&#171;Device&#187;</text><text fill="#000000" font-family="sans-serif" font-size="14" lengthAdjust="spacing" textLength="92.832" x="347.58" y="95.292">Web Browser</text></g><!--entity Flask Application--><g class="entity" data-entity="Flask Application" data-source-line="6" data-uid="ent0005" id="entity_Flask Application"><rect fill="#F1F1F1" height="62.5938" rx="2.5" ry="2.5" style="stroke:#181818;stroke-width:0.5;" width="158.5967" x="319.7" y="213.6"/><rect fill="#F1F1F1" height="10" style="stroke:#181818;stroke-width:0.5;" width="15" x="458.2967" y="218.6"/><rect fill="#F1F1F1" height="2" style="stroke:#181818;stroke-width:0.5;" width="4" x="456.2967" y="220.6"/><rect fill="#F1F1F1" height="2" style="stroke:#181818;stroke-width:0.5;" width="4" x="456.2967" y="224.6"/><text fill="#000000" font-family="sans-serif" font-size="14" font-style="italic" lengthAdjust="spacing" textLength="68.5371" x="359.7298" y="246.5951">&#171;Artifact&#187;</text><text fill="#000000" font-family="sans-serif" font-size="14" lengthAdjust="spacing" textLength="118.5967" x="334.7" y="262.892">Flask Application</text></g><!--entity Emotion Recognition Library--><g class="entity" data-entity="Emotion Recognition Library" data-source-line="7" data-uid="ent0006" id="entity_Emotion Recognition Library"><rect fill="#F1F1F1" height="62.5938" rx="2.5" ry="2.5" style="stroke:#181818;stroke-width:0.5;" width="238.7891" x="279.61" y="353.19"/><rect fill="#F1F1F1" height="10" style="stroke:#181818;stroke-width:0.5;" width="15" x="498.3991" y="358.19"/><rect fill="#F1F1F1" height="2" style="stroke:#181818;stroke-width:0.5;" width="4" x="496.3991" y="360.19"/><rect fill="#F1F1F1" height="2" style="stroke:#181818;stroke-width:0.5;" width="4" x="496.3991" y="364.19"/><text fill="#000000" font-family="sans-serif" font-size="14" font-style="italic" lengthAdjust="spacing" textLength="68.5371" x="359.736" y="386.1851">&#171;Artifact&#187;</text><text fill="#000000" font-family="sans-serif" font-size="14" lengthAdjust="spacing" textLength="198.7891" x="294.61" y="402.482">Emotion Recognition Library</text></g><!--entity Audio Processing Library--><g class="entity" data-entity="Audio Processing Library" data-source-line="8" data-uid="ent0007" id="entity_Audio Processing Library"><rect fill="#F1F1F1" height="62.5938" rx="2.5" ry="2.5" style="stroke:#181818;stroke-width:0.5;" width="212.9561" x="553.52" y="353.19"/><rect fill="#F1F1F1" height="10" style="stroke:#181818;stroke-width:0.5;" width="15" x="746.4761" y="358.19"/><rect fill="#F1F1F1" height="2" style="stroke:#181818;stroke-width:0.5;" width="4" x="744.4761" y="360.19"/><rect fill="#F1F1F1" height="2" style="stroke:#181818;stroke-width:0.5;" width="4" x="744.4761" y="364.19"/><text fill="#000000" font-family="sans-serif" font-size="14" font-style="italic" lengthAdjust="spacing" textLength="68.5371" x="620.7295" y="386.1851">&#171;Artifact&#187;</text><text fill="#000000" font-family="sans-serif" font-size="14" lengthAdjust="spacing" textLength="172.9561" x="568.52" y="402.482">Audio Processing Library</text></g><!--entity Video Processing Library--><g class="entity" data-entity="Video Processing Library" data-source-line="9" data-uid="ent0008" id="entity_Video Processing Library"><rect fill="#F1F1F1" height="62.5938" rx="2.5" ry="2.5" style="stroke:#181818;stroke-width:0.5;" width="212.6963" x="31.65" y="353.19"/><rect fill="#F1F1F1" height="10" style="stroke:#181818;stroke-width:0.5;" width="15" x="224.3463" y="358.19"/><rect fill="#F1F1F1" height="2" style="stroke:#181818;stroke-width:0.5;" width="4" x="222.3463" y="360.19"/><rect fill="#F1F1F1" height="2" style="stroke:#181818;stroke-width:0.5;" width="4" x="222.3463" y="364.19"/><text fill="#000000" font-family="sans-serif" font-size="14" font-style="italic" lengthAdjust="spacing" textLength="68.5371" x="98.7296" y="386.1851">&#171;Artifact&#187;</text><text fill="#000000" font-family="sans-serif" font-size="14" lengthAdjust="spacing" textLength="172.6963" x="46.65" y="402.482">Video Processing Library</text></g><!--entity VideoDB--><g class="entity" data-entity="VideoDB" data-source-line="13" data-uid="ent0010" id="entity_VideoDB"><path d="M96.8,530.78 C96.8,520.78 196.9968,520.78 196.9968,520.78 C196.9968,520.78 297.1936,520.78 297.1936,530.78 L297.1936,556.0769 C297.1936,566.0769 196.9968,566.0769 196.9968,566.0769 C196.9968,566.0769 96.8,566.0769 96.8,556.0769 L96.8,530.78" fill="#F1F1F1" style="stroke:#181818;stroke-width:0.5;"/><path d="M96.8,530.78 C96.8,540.78 196.9968,540.78 196.9968,540.78 C196.9968,540.78 297.1936,540.78 297.1936,530.78" fill="none" style="stroke:#181818;stroke-width:0.5;"/><text fill="#000000" font-family="sans-serif" font-size="14" lengthAdjust="spacing" textLength="180.3936" x="106.8" y="557.7751">Video Emotions Database</text></g><!--entity AudioDB--><g class="entity" data-entity="AudioDB" data-source-line="14" data-uid="ent0011" id="entity_AudioDB"><path d="M499.67,530.78 C499.67,520.78 599.9967,520.78 599.9967,520.78 C599.9967,520.78 700.3233,520.78 700.3233,530.78 L700.3233,556.0769 C700.3233,566.0769 599.9967,566.0769 599.9967,566.0769 C599.9967,566.0769 499.67,566.0769 499.67,556.0769 L499.67,530.78" fill="#F1F1F1" style="stroke:#181818;stroke-width:0.5;"/><path d="M499.67,530.78 C499.67,540.78 599.9967,540.78 599.9967,540.78 C599.9967,540.78 700.3233,540.78 700.3233,530.78" fill="none" style="stroke:#181818;stroke-width:0.5;"/><text fill="#000000" font-family="sans-serif" font-size="14" lengthAdjust="spacing" textLength="180.6533" x="509.67" y="557.7751">Audio Emotions Database</text></g><!--entity ProbabilityDB--><g class="entity" data-entity="ProbabilityDB" data-source-line="15" data-uid="ent0012" id="entity_ProbabilityDB"><path d="M331.78,530.78 C331.78,520.78 397.9988,520.78 397.9988,520.78 C397.9988,520.78 464.2175,520.78 464.2175,530.78 L464.2175,556.0769 C464.2175,566.0769 397.9988,566.0769 397.9988,566.0769 C397.9988,566.0769 331.78,566.0769 331.78,556.0769 L331.78,530.78" fill="#F1F1F1" style="stroke:#181818;stroke-width:0.5;"/><path d="M331.78,530.78 C331.78,540.78 397.9988,540.78 397.9988,540.78 C397.9988,540.78 464.2175,540.78 464.2175,530.78" fill="none" style="stroke:#181818;stroke-width:0.5;"/><text fill="#000000" font-family="sans-serif" font-size="14" lengthAdjust="spacing" textLength="112.4375" x="341.78" y="557.7751">Probability Data</text></g><!--link Web Browser to Flask Application--><g class="link" data-entity-1="Web Browser" data-entity-2="Flask Application" data-source-line="18" data-uid="lnk13" id="link_Web Browser_Flask Application"><path d="M399,109.06 C399,138.8 399,177.61 399,207.3" fill="none" id="Web Browser-to-Flask Application" style="stroke:#181818;stroke-width:1;"/><polygon fill="#181818" points="399,213.3,403,204.3,399,208.3,395,204.3,399,213.3" style="stroke:#181818;stroke-width:1;"/><text fill="#000000" font-family="sans-serif" font-size="13" lengthAdjust="spacing" textLength="97.792" x="400" y="153.6669">HTTP Requests</text></g><!--link Flask Application to Emotion Recognition Library--><g class="link" data-entity-1="Flask Application" data-entity-2="Emotion Recognition Library" data-source-line="19" data-uid="lnk14" id="link_Flask Application_Emotion Recognition Library"><path d="M399,276.43 C399,299.23 399,324.25 399,347.04" fill="none" id="Flask Application-to-Emotion Recognition Library" style="stroke:#181818;stroke-width:1;"/><polygon fill="#181818" points="399,353.04,403,344.04,399,348.04,395,344.04,399,353.04" style="stroke:#181818;stroke-width:1;"/><text fill="#000000" font-family="sans-serif" font-size="13" lengthAdjust="spacing" textLength="55.7388" x="400" y="319.2569">API Calls</text></g><!--link Flask Application to Audio Processing Library--><g class="link" data-entity-1="Flask Application" data-entity-2="Audio Processing Library" data-source-line="20" data-uid="lnk15" id="link_Flask Application_Audio Processing Library"><path d="M457.25,276.6 C500.37,299.33 553.5423,327.362 596.6223,350.072" fill="none" id="Flask Application-to-Audio Processing Library" style="stroke:#181818;stroke-width:1;"/><polygon fill="#181818" points="601.93,352.87,595.8338,345.1346,597.5069,350.5383,592.1032,352.2115,601.93,352.87" style="stroke:#181818;stroke-width:1;"/><text fill="#000000" font-family="sans-serif" font-size="13" lengthAdjust="spacing" textLength="94.6436" x="546" y="319.2569">Audio Analysis</text></g><!--link Flask Application to Video Processing Library--><g class="link" data-entity-1="Flask Application" data-entity-2="Video Processing Library" data-source-line="21" data-uid="lnk16" id="link_Flask Application_Video Processing Library"><path d="M340.75,276.6 C297.63,299.33 244.4577,327.362 201.3777,350.072" fill="none" id="Flask Application-to-Video Processing Library" style="stroke:#181818;stroke-width:1;"/><polygon fill="#181818" points="196.07,352.87,205.8968,352.2115,200.4931,350.5383,202.1662,345.1346,196.07,352.87" style="stroke:#181818;stroke-width:1;"/><text fill="#000000" font-family="sans-serif" font-size="13" lengthAdjust="spacing" textLength="94.4023" x="285" y="319.2569">Video Analysis</text></g><!--link Emotion Recognition Library to VideoDB--><g class="link" data-entity-1="Emotion Recognition Library" data-entity-2="VideoDB" data-source-line="23" data-uid="lnk17" id="link_Emotion Recognition Library_VideoDB"><path d="M352.03,416.25 C337.68,426.02 321.99,437.08 308,447.78 C277.03,471.48 247.6271,496.9255 225.5471,516.6255" fill="none" id="Emotion Recognition Library-to-VideoDB" style="stroke:#181818;stroke-width:1;"/><polygon fill="#181818" points="221.07,520.62,230.4486,517.613,224.8009,517.2913,225.1226,511.6436,221.07,520.62" style="stroke:#181818;stroke-width:1;"/><text fill="#000000" font-family="sans-serif" font-size="13" lengthAdjust="spacing" textLength="76.8511" x="309" y="460.8469">Writes Data</text></g><!--link Emotion Recognition Library to AudioDB--><g class="link" data-entity-1="Emotion Recognition Library" data-entity-2="AudioDB" data-source-line="24" data-uid="lnk18" id="link_Emotion Recognition Library_AudioDB"><path d="M455.62,416.16 C471.45,425.59 488.33,436.48 503,447.78 C532.08,470.18 557.6616,496.0293 576.3916,516.2393" fill="none" id="Emotion Recognition Library-to-AudioDB" style="stroke:#181818;stroke-width:1;"/><polygon fill="#181818" points="580.47,520.64,577.2861,511.32,577.0713,516.9727,571.4185,516.7579,580.47,520.64" style="stroke:#181818;stroke-width:1;"/><text fill="#000000" font-family="sans-serif" font-size="13" lengthAdjust="spacing" textLength="76.8511" x="523" y="460.8469">Writes Data</text></g><!--link Emotion Recognition Library to ProbabilityDB--><g class="link" data-entity-1="Emotion Recognition Library" data-entity-2="ProbabilityDB" data-source-line="25" data-uid="lnk19" id="link_Emotion Recognition Library_ProbabilityDB"><path d="M396.64,416.2 C395.97,426.26 395.33,437.49 395,447.78 C394.2,472.76 395.0635,495.45 396.1735,514.64" fill="none" id="Emotion Recognition Library-to-ProbabilityDB" style="stroke:#181818;stroke-width:1;"/><polygon fill="#181818" points="396.52,520.63,399.9936,511.414,396.2313,515.6383,392.007,511.876,396.52,520.63" style="stroke:#181818;stroke-width:1;"/><text fill="#000000" font-family="sans-serif" font-size="13" lengthAdjust="spacing" textLength="102.6606" x="396" y="460.8469">Generates Data</text></g><!--link Audio Processing Library to AudioDB--><g class="link" data-entity-1="Audio Processing Library" data-entity-2="AudioDB" data-source-line="27" data-uid="lnk20" id="link_Audio Processing Library_AudioDB"><path d="M648.29,416.12 C636.56,446.81 620.9317,487.6753 610.5417,514.8653" fill="none" id="Audio Processing Library-to-AudioDB" style="stroke:#181818;stroke-width:1;"/><polygon fill="#181818" points="608.4,520.47,615.3491,513.4907,610.1848,515.7994,607.8761,510.6351,608.4,520.47" style="stroke:#181818;stroke-width:1;"/><text fill="#000000" font-family="sans-serif" font-size="13" lengthAdjust="spacing" textLength="75.1943" x="636" y="460.8469">Reads Data</text></g><!--link Video Processing Library to VideoDB--><g class="link" data-entity-1="Video Processing Library" data-entity-2="VideoDB" data-source-line="28" data-uid="lnk21" id="link_Video Processing Library_VideoDB"><path d="M141.95,416.21 C144.43,431.17 148.28,449.23 154,464.78 C161.29,484.6 169.9191,500.3463 179.3191,515.4463" fill="none" id="Video Processing Library-to-VideoDB" style="stroke:#181818;stroke-width:1;"/><polygon fill="#181818" points="182.49,520.54,181.1294,510.7856,179.8476,516.2953,174.3379,515.0134,182.49,520.54" style="stroke:#181818;stroke-width:1;"/><text fill="#000000" font-family="sans-serif" font-size="13" lengthAdjust="spacing" textLength="75.1943" x="155" y="460.8469">Reads Data</text></g><!--SRC=[bP7BJiCm44Nt_efHzls1gAgK4buIYwWKka0i9icq6X7iOhj54UBVSPn7IKcYufNbkMSySwzKEK7mP4X3J4VEA80l0UwyR2Y5fLQVhlGAytbTNIp4jn3IGvNWaVIHTCVS56ZU8Dhl2yxGif8L6MdBMyoiOxte-brL9LXHfdQI_Vs1Kusw7997XvmL95fbP0pBtPJscNEwGDkj4AF550sTxP6tpq7Ti9dOGAiF00tuMhmy8-fnXmbV-qEuSLDCkM1RUhcN_dfqW1kudyTijXXqEuIxzJfnrduSo5WZXZIUdGmXX2YvXoiiYeaEuxc4zQ8GIInAmnCznlCAQtjFFSJqo5Mx9X37RZHRgis_W6jY-JVNoyZHjoH9OzT0J5ZK_tP5cBU_ZblIN_74_000]--></g></svg>